<svg viewBox="0 0 24 22">
<path fill="currentColor" fill-rule="evenodd" clip-rule="evenodd" d="M17.445 14.033a3.716 3.716 0 011.885-1.124 2.53 2.53 0 01-1.67-2.376 2.528 2.528 0 012.526-2.525 2.528 2.528 0 012.526 2.525 2.53 2.53 0 01-1.667 2.375 3.687 3.687 0 012.822 3.58v.39h-4.214l.018.037c.032.068.097.223.165.389a.4.4 0 01-.74.304 7.832 7.832 0 00-1.683-2.494 7.786 7.786 0 00-5.71-2.291 7.786 7.786 0 00-5.348 2.29 7.784 7.784 0 00-2.285 5.125h15.628a7.815 7.815 0 00-.072-.732.403.403 0 11.8-.113c.06.405.092.815.096 1.23l.001.02v.013c0 .086.01.171-.075.27a.38.38 0 01-.287.127H3.606a.379.379 0 01-.286-.127c-.086-.099-.076-.184-.075-.27v-.013-.02a8.803 8.803 0 01.87-3.745H0v-.39a3.687 3.687 0 012.822-3.58 2.53 2.53 0 01-1.666-2.375A2.528 2.528 0 013.68 8.008a2.528 2.528 0 012.525 2.525 2.53 2.53 0 01-1.668 2.376c.706.17 1.348.547 1.841 1.077a8.582 8.582 0 015.704-1.978 8.583 8.583 0 015.362 2.025zm1.781 2.064h3.834a2.904 2.904 0 00-2.874-2.51c-.836 0-1.624.367-2.167.975l.016.017c.455.461.854.969 1.191 1.518zm.96-3.82c.962 0 1.744-.782 1.744-1.744s-.782-1.744-1.744-1.744-1.744.782-1.744 1.744.782 1.744 1.744 1.744zM5.801 14.51a2.915 2.915 0 00-2.12-.922 2.904 2.904 0 00-2.874 2.509h3.734a8.508 8.508 0 011.26-1.587zm-3.864-3.977c0 .962.782 1.744 1.744 1.744s1.744-.782 1.744-1.744S4.643 8.79 3.681 8.79s-1.744.782-1.744 1.744zm9.947.15a4.94 4.94 0 004.933-4.935A4.94 4.94 0 0011.884.815 4.94 4.94 0 006.95 5.748a4.94 4.94 0 004.934 4.934zm0 .814a5.755 5.755 0 01-5.749-5.749A5.755 5.755 0 0111.884 0a5.755 5.755 0 015.748 5.748 5.755 5.755 0 01-5.748 5.749z"/>
</svg>
