<svg viewBox="0 0 24 22">
<path fill="currentColor" fill-rule="evenodd" clip-rule="evenodd" d="M5.952 14.595a7.39 7.39 0 011.263-1.113c.186-.13.377-.25.572-.362l.005-.003a7.403 7.403 0 01.467-.244l.021-.01c.114-.054.229-.105.345-.153l.017-.007a6.823 6.823 0 01.241-.094l.038-.014.186-.065.044-.014c.03-.01.059-.02.088-.028l.063-.02a7.184 7.184 0 01.37-.102l.072-.017a7.193 7.193 0 01.25-.054l.062-.013.149-.027.051-.008a7.86 7.86 0 01.11-.017l.06-.009a7.77 7.77 0 01.108-.014l.053-.006.158-.017.029-.003a7.45 7.45 0 01.134-.01l.053-.004a7.75 7.75 0 01.117-.007l.05-.003a7.278 7.278 0 01.67 0l.05.003.117.007.052.003.134.011.03.003c.052.005.105.01.157.017l.053.006.109.014.06.009.11.017.05.008.15.027.06.013a8.11 8.11 0 01.251.054l.072.017a6.939 6.939 0 01.433.122c.03.009.06.018.088.028l.045.014.185.065.038.014a7.507 7.507 0 01.242.094l.017.007c.116.048.23.099.344.153l.022.01.11.054.005.002c.118.06.236.122.352.188l.004.003a7.403 7.403 0 011.615 1.242c.125.127.245.258.36.392a2.889 2.889 0 011.262-1.45h.002c.045-.027.091-.051.138-.075h.002a2.987 2.987 0 01.187-.086l.007-.003.04-.016.016-.006.039-.015.015-.005.073-.026.017-.005.035-.011.024-.008a4.297 4.297 0 01.146-.04l.028-.007.034-.008a2.712 2.712 0 01.064-.013l.025-.005.058-.01.02-.004.043-.007a4.544 4.544 0 01.067-.009l.02-.002a3.01 3.01 0 01.062-.007h.012l.052-.005.021-.002a2.791 2.791 0 01.395 0l.02.002.053.004.012.001.062.007.02.002a3.598 3.598 0 01.11.016l.02.003.058.011.024.005a2.738 2.738 0 01.065.013l.034.008a2.083 2.083 0 01.174.047l.024.008.035.01.017.006.073.026.015.005.039.015.016.006.04.016.007.003.135.06.009.004.043.021.002.001a2.91 2.91 0 011.399 1.516 2.967 2.967 0 01.195.765l.003.022a3.011 3.011 0 01.018.303v.03a.116.116 0 01-.115.116h-4.665a7.505 7.505 0 01.886 2.807 7.711 7.711 0 01.047.772v.075a.295.295 0 01-.294.295H4.328a.295.295 0 01-.295-.295v-.046-.011-.018a7.75 7.75 0 01.084-1.063 7.543 7.543 0 01.849-2.516H.51a.116.116 0 01-.116-.116v-.019-.004-.007l.003-.094.001-.023c.003-.062.008-.124.015-.186l.002-.022.012-.093c.035-.23.096-.455.184-.672a2.889 2.889 0 011.259-1.44l.001-.002c.046-.026.092-.05.139-.074h.001a2.987 2.987 0 01.188-.086l.007-.003.04-.016.016-.006.038-.015.015-.005.073-.026.018-.005.034-.011.025-.008a4.297 4.297 0 01.174-.047l.033-.008a2.712 2.712 0 01.065-.013l.024-.005a3.04 3.04 0 01.059-.01l.02-.004.043-.007a4.542 4.542 0 01.066-.009l.021-.002.062-.007h.012l.052-.005.02-.002a2.791 2.791 0 01.396 0l.02.002.053.004.011.001.062.007.021.002a3.599 3.599 0 01.11.016l.02.003.058.011.024.005a2.739 2.739 0 01.065.013l.034.008.028.007a2.742 2.742 0 01.145.04l.025.008.035.01c.006.002.011.005.017.006l.073.026.015.005.039.015.016.006.04.016.007.003.135.06.008.004.044.021.002.001c.046.024.092.048.138.074l.002.001a2.914 2.914 0 011.193 1.291zm5.51-4.315A4.95 4.95 0 016.52 5.337 4.95 4.95 0 0111.463.393a4.95 4.95 0 014.943 4.944 4.95 4.95 0 01-4.943 4.943zm8.357 1.908a1.945 1.945 0 01-1.942-1.943c0-1.071.871-1.943 1.942-1.943 1.072 0 1.943.872 1.943 1.943a1.945 1.945 0 01-1.943 1.943zm-16.505 0a1.945 1.945 0 01-1.943-1.943c0-1.071.872-1.943 1.943-1.943 1.072 0 1.943.872 1.943 1.943a1.945 1.945 0 01-1.943 1.943z" opacity=".3"/>
<path fill="currentColor" fill-rule="evenodd" clip-rule="evenodd" d="M17.445 14.033a3.716 3.716 0 011.885-1.124 2.53 2.53 0 01-1.67-2.376 2.528 2.528 0 012.526-2.525 2.528 2.528 0 012.526 2.525 2.53 2.53 0 01-1.667 2.375 3.687 3.687 0 012.822 3.58v.39h-4.214l.018.037c.032.068.097.223.165.389a.4.4 0 01-.74.304 7.832 7.832 0 00-1.683-2.494 7.786 7.786 0 00-5.71-2.291 7.786 7.786 0 00-5.348 2.29 7.784 7.784 0 00-2.285 5.125h15.628a7.815 7.815 0 00-.072-.732.403.403 0 11.8-.113c.06.405.092.815.096 1.23l.001.02v.013c0 .086.01.171-.075.27a.38.38 0 01-.287.127H3.606a.379.379 0 01-.286-.127c-.086-.099-.076-.184-.075-.27v-.013-.02a8.803 8.803 0 01.87-3.745H0v-.39a3.687 3.687 0 012.822-3.58 2.53 2.53 0 01-1.666-2.375A2.528 2.528 0 013.68 8.008a2.528 2.528 0 012.525 2.525 2.53 2.53 0 01-1.668 2.376c.706.17 1.348.547 1.841 1.077a8.582 8.582 0 015.704-1.978 8.583 8.583 0 015.362 2.025zm1.781 2.064h3.834a2.904 2.904 0 00-2.874-2.51c-.836 0-1.624.367-2.167.975l.016.017c.455.461.854.969 1.191 1.518zm.96-3.82c.962 0 1.744-.782 1.744-1.744s-.782-1.744-1.744-1.744-1.744.782-1.744 1.744.782 1.744 1.744 1.744zM5.801 14.51a2.915 2.915 0 00-2.12-.922 2.904 2.904 0 00-2.874 2.509h3.734a8.508 8.508 0 011.26-1.587zm-3.864-3.977c0 .962.782 1.744 1.744 1.744s1.744-.782 1.744-1.744S4.643 8.79 3.681 8.79s-1.744.782-1.744 1.744zm9.947.15a4.94 4.94 0 004.933-4.935A4.94 4.94 0 0011.884.815 4.94 4.94 0 006.95 5.748a4.94 4.94 0 004.934 4.934zm0 .814a5.755 5.755 0 01-5.749-5.749A5.755 5.755 0 0111.884 0a5.755 5.755 0 015.748 5.748 5.755 5.755 0 01-5.748 5.749z"/>
</svg>
