<svg viewBox="0 0 22 24">
<path fill="currentColor" fill-rule="evenodd" clip-rule="evenodd" d="M20.365 8.906L7.75 21.826a3.917 3.917 0 01-5.628 0c-1.552-1.59-1.552-4.175 0-5.766l1.627-1.667L14.735 3.14l1.324-1.354a2.643 2.643 0 013.797 0 2.802 2.802 0 010 3.89l-3.492 3.577-8.816 9.03-.204.208a1.323 1.323 0 01-1.899 0 1.4 1.4 0 010-1.944l9.02-9.238a.5.5 0 000-.695.471.471 0 00-.679 0l-9.019 9.238a2.4 2.4 0 000 3.334c.897.92 2.357.919 3.255 0l.203-.208 8.817-9.03 3.492-3.577c1.42-1.456 1.422-3.824 0-5.28a3.589 3.589 0 00-5.154 0l-1.322 1.355L3.07 13.699l-1.626 1.667c-1.927 1.972-1.927 5.182 0 7.154a4.861 4.861 0 006.984 0L21.042 9.6a.498.498 0 000-.694.47.47 0 00-.677 0z"/>
</svg>
