<svg viewBox="0 0 20 24">
<path fill="currentColor" fill-rule="evenodd" clip-rule="evenodd" d="M19.61 23.611v-.022-.022V7.085v-.006a.435.435 0 00-.43-.438h-2.71a.109.109 0 01-.106-.11V4.116C16.369 1.847 14.56 0 12.34 0c-.896 0-1.744.296-2.457.855a.102.102 0 01-.065.022c-.021 0-.048-.006-.064-.022A3.949 3.949 0 007.297 0c-2.222 0-4.03 1.847-4.03 4.115v2.417c0 .06-.048.11-.107.11H.45a.435.435 0 00-.429.437v16.483c0 .24.194.438.43.438h18.735a.354.354 0 00.128-.022c.006 0 .006 0 .011-.005.01-.006.022-.006.032-.011 0 0 .006 0 .006-.006l.01-.005h.006c.005-.006.016-.006.021-.011.006 0 .006-.006.011-.006l.005-.005a.04.04 0 01.022-.011c.005-.006.01-.006.01-.011l.006-.006c.005-.005.01-.01.021-.016.006-.006.011-.011.017-.011l.021-.022.005-.005.006-.006.016-.016c.005-.006.005-.011.01-.017.006-.005.011-.01.011-.022v-.005c.006-.006.006-.011.011-.017.005-.005.005-.01.01-.022v-.005c0-.005.006-.011.006-.016 0-.006.005-.011.005-.017V23.7c0-.006.006-.011.006-.017 0-.005.005-.01.005-.016v-.006c0-.01.006-.016.006-.022 0-.005 0-.01.005-.016-.005.005-.005 0-.005-.011zM9.169 4.115c0-.657.193-1.293.563-1.836.022-.027.054-.049.086-.049.032 0 .07.017.086.05.37.542.563 1.178.563 1.835v2.417c0 .06-.048.11-.107.11H9.276a.109.109 0 01-.107-.11V4.115zm-5.043 0c0-1.786 1.422-3.238 3.17-3.238.655 0 1.283.202 1.82.586a.122.122 0 01.042.071.113.113 0 01-.021.082A4.132 4.132 0 008.31 4.11v2.416c0 .06-.049.11-.108.11h-3.97a.109.109 0 01-.107-.11v-2.41zm9.587 18.899c0 .06-.048.11-.107.11H.987a.109.109 0 01-.107-.11V7.627c0-.06.048-.11.107-.11h12.619c.059 0 .107.05.107.11v15.387zm.43-16.373h-2.71a.109.109 0 01-.107-.11V4.116c0-.91-.285-1.77-.826-2.493a.113.113 0 01-.022-.082.122.122 0 01.043-.072A3.109 3.109 0 0112.34.882c1.749 0 3.17 1.452 3.17 3.239v2.416c0 .06-.048.11-.107.11h-1.26V6.64zm3.739 16.411a.105.105 0 01-.102.071h-2.232a.11.11 0 01-.102-.07c-.016-.045-.005-.094.027-.121l1.116-1.02a.125.125 0 01.07-.027c.021 0 .053.01.07.027l1.115 1.02c.043.032.054.076.038.12zm.874-.718a.108.108 0 01-.064.099c-.016.005-.027.01-.043.01a.1.1 0 01-.07-.027l-1.448-1.326a.118.118 0 01-.038-.082v-8.41a.435.435 0 00-.429-.44.435.435 0 00-.43.44v8.416a.1.1 0 01-.037.082l-1.448 1.326a.125.125 0 01-.07.027.1.1 0 01-.043-.01.108.108 0 01-.064-.1V7.628c0-.06.048-.11.107-.11h1.449c.059 0 .107.05.107.11V10.4c0 .241.193.438.43.438.235 0 .428-.197.428-.438V7.627c0-.06.049-.11.108-.11h1.448c.06 0 .107.05.107.11v14.707z"/>
</svg>
