<svg viewBox="0 0 500 447">
<path fill="currentColor" fill-rule="evenodd" clip-rule="evenodd" d="M79.387 19.378v44.56H21.82a9.103 9.103 0 00-9.103 9.103v300.938c0 23.438 19 42.438 42.438 42.438l350.828.38 22.723-.477.64-.037c21.962-2.015 38.524-20.18 38.524-42.252V19.758a9.104 9.104 0 00-9.104-9.103l-370.275-.38a9.104 9.104 0 00-9.103 9.103" opacity=".3"/>
<path fill="currentColor" fill-rule="evenodd" clip-rule="evenodd" d="M480 399.598V20.418L93.24 20v379.541a46.339 46.339 0 01-8.38 26.62l346.947.417 24.371-.512c13.603-1.41 23.822-12.733 23.822-26.468zm-460-.057c0 14.678 11.942 26.62 26.62 26.62s26.62-11.942 26.62-26.62V78.951H20v320.59zm53.24-389.54c0-5.524 4.477-10 10-10L490 .417c5.522 0 10 4.477 10 10v389.18c0 24.248-18.193 44.202-42.318 46.416l-.704.04-24.962.524-385.396-.417c-25.747 0-46.62-20.873-46.62-46.62V68.951c0-5.523 4.477-10 10-10h63.24v-48.95zm73.552 145.78h277.625v-53.242H146.792v53.242zm287.625 20H136.792c-5.523 0-10-4.477-10-10V92.539c0-5.523 4.477-10 10-10h297.625c5.522 0 10 4.477 10 10v73.242c0 5.523-4.478 10-10 10zM320.253 336.914h104.164V232.75H320.253v104.164zm114.164 20H310.253c-5.523 0-10-4.477-10-10V222.75c0-5.523 4.477-10 10-10h124.164c5.522 0 10 4.477 10 10v124.164c0 5.523-4.478 10-10 10zM263.81 232.75H146.792c-5.523 0-10-4.477-10-10s4.477-10 10-10H263.81c5.522 0 10 4.477 10 10s-4.478 10-10 10zm0 62.082H146.792c-5.523 0-10-4.477-10-10s4.477-10 10-10H263.81c5.522 0 10 4.477 10 10s-4.478 10-10 10zm0 62.082H146.792c-5.523 0-10-4.477-10-10s4.477-10 10-10H263.81c5.522 0 10 4.477 10 10s-4.478 10-10 10z"/>
</svg>
