<svg viewBox="0 0 23 22">
<path fill="currentColor" fill-rule="evenodd" clip-rule="evenodd" d="M14.287 15.514l-2.244-2.992 7.433-4.13 2.222 2.594-7.41 4.528zm4.916 1.03a.553.553 0 01-.275.476l-7.07 4.082v-7.649l2.057 2.742a.353.353 0 00.466.09l4.822-2.947v3.206zm-15.164.464a.51.51 0 01-.254-.44V13.58l4.882 2.712a.352.352 0 00.454-.098l2.032-2.733v7.654l-7.114-4.107zm-.462-8.605l7.4 4.111-2.238 3.01-7.414-4.119 2.252-3.002zM8.78.794l2.171 2.17L3.514 7.51.96 5.322 8.78.794zM14.257.79l7.43 4.127-2.203 2.57-7.412-4.53L14.257.79zM11.86 3.655l6.996 4.275-6.996 3.887V3.655zm-.706 8.15L4.18 7.93l6.973-4.261v8.135zm11.35-.964l-2.482-2.896 2.482-2.897a.35.35 0 00-.096-.538L14.368.044a.353.353 0 00-.42.059l-2.44 2.42-2.42-2.42a.353.353 0 00-.426-.055L.176 4.96a.353.353 0 00-.052.573l2.875 2.465-2.482 3.308a.35.35 0 00.112.52L3.1 13.199a.348.348 0 00-.022.105v3.265c0 .43.232.833.606 1.05l7.183 4.146c.193.112.41.167.626.167h.007l.005.001.01-.002c.21-.004.418-.058.605-.166l7.16-4.134c.387-.224.628-.64.628-1.087v-3.638l2.51-1.534a.352.352 0 00.084-.53z"/>
</svg>
