<svg viewBox="0 0 22 24">
<path fill="currentColor" fill-rule="evenodd" clip-rule="evenodd" d="M18.257 9.483c.238 0 .456.188.456.454v5.116a.68.68 0 0 1-.327.581l-5.778 3.516a.455.455 0 0 1-.692-.388v-5.116a.68.68 0 0 1 .327-.581l5.779-3.515a.451.451 0 0 1 .235-.067zm-.506 1.355l-4.873 2.965v4.058l4.873-2.965v-4.058zM6.513 20.601l3.634 2.213.012-10.354-3.646-2.095v4.05c0 .355-.39.573-.694.389L3.155 13.19a.68.68 0 0 1-.329-.582v-4.36l-1.914-1.1V17.19l1.914 1.165v-1.404c0-.354.39-.572.693-.388l2.665 1.614a.68.68 0 0 1 .329.582V20.6zm-.913-.555v-1.159L3.74 17.76v1.152L5.6 20.046zM10.615.908L1.36 6.357 3.4 7.527l9.343-5.367L10.615.908zM3.74 8.772v3.709L5.6 13.608V9.841L3.74 8.771zm3.42.916l3.456 1.986 9.255-5.317-3.414-2.01-.88.505a.458.458 0 0 1-.61-.145.453.453 0 0 1 .154-.642l.434-.25-1.911-1.125L4.31 8.052l1.935 1.112 6.895-3.962a.457.457 0 0 1 .61.144.453.453 0 0 1-.153.642l-6.44 3.7zM20.775 8.51a.455.455 0 0 1-.457-.454v-.908l-9.247 5.313-.011 10.353 9.258-5.623v-6.865c0-.25.205-.454.457-.454.251 0 .456.203.456.454v6.865c0 .316-.166.61-.437.775l-9.716 5.901a.916.916 0 0 1-.951 0l-9.69-5.901A.907.907 0 0 1 0 17.19V6.621c0-.322.17-.619.448-.782L10.15.127a.916.916 0 0 1 .929 0l9.703 5.712c.277.163.448.46.448.781v1.436c0 .25-.205.454-.456.454z"/>
</svg>
