<svg viewBox="0 0 24 24">
<path fill="currentColor" fill-rule="evenodd" clip-rule="evenodd" d="M9.81 7.436a.484.484 0 0 1-.485.486H7.867V9.38a.486.486 0 0 1-.971 0V7.922H5.438a.486.486 0 0 1 0-.971h1.458V5.493a.486.486 0 1 1 .971 0v1.458h1.458c.268 0 .486.217.486.485zm4.25.015c0-.277.217-.5.485-.5h3.887c.268 0 .486.223.486.5 0 .276-.218.5-.486.5h-3.887a.493.493 0 0 1-.486-.5zm3.116 9.087l1.03 1.03a.486.486 0 0 1-.687.687l-1.03-1.03-1.031 1.03a.486.486 0 1 1-.687-.687l1.03-1.03-1.03-1.03a.486.486 0 0 1 .687-.688l1.03 1.03 1.031-1.03a.486.486 0 0 1 .687.687l-1.03 1.03zm-12.224.014c0-.276.218-.5.486-.5h3.887c.268 0 .486.224.486.5s-.218.5-.486.5H5.438a.493.493 0 0 1-.486-.5zm2.944-1.943a.5.5 0 1 1-1 0 .5.5 0 0 1 1 0zm0 3.886a.5.5 0 1 1-1 0 .5.5 0 0 1 1 0zm11.9 1.3a10.99 10.99 0 0 0 3.218-7.308H12.487v10.527a10.99 10.99 0 0 0 7.308-3.218zm-15.592 0a10.99 10.99 0 0 0 7.309 3.219V12.487H.986a10.99 10.99 0 0 0 3.218 7.308zm0-15.59a10.99 10.99 0 0 0-3.218 7.307h10.527V.986a10.99 10.99 0 0 0-7.308 3.218zm19.237 6.02c.249 0 .457.188.485.435.049.44.074.887.074 1.34 0 6.627-5.373 12-12 12C5.376 24 .005 18.632 0 12.009-.005 5.396 5.387 0 12 0c5.337 0 9.859 3.484 11.418 8.3a.487.487 0 1 1-.928.297 10.99 10.99 0 0 0-2.694-4.393A10.99 10.99 0 0 0 12.487.986v10.526h10.526c-.01-.249-.029-.497-.056-.744a.488.488 0 0 1 .484-.543z"/>
</svg>
