<svg viewBox="0 0 24 24">
<path fill="currentColor" fill-rule="evenodd" clip-rule="evenodd" d="M4.455 6.56a.525.525 0 00.372.894h1.579v1.572a.526.526 0 001.053 0V7.455h1.578a.526.526 0 00.527-.524.525.525 0 00-.527-.524H7.458V4.835a.526.526 0 00-1.053 0v1.572H4.828a.526.526 0 00-.372.153zM.173 9.747a11.807 11.807 0 013.301-6.282A11.95 11.95 0 017.752.731a11.84 11.84 0 013.613-.724v11.312H0a11.923 11.923 0 01.173-1.572zm8.867 7.81a.526.526 0 000-1.052H4.828a.526.526 0 100 1.053H9.04zm-2.106 2.106a.526.526 0 100-1.053.526.526 0 000 1.053zm0-5.264a.526.526 0 100 1.053.526.526 0 000-1.053zM11.368 24a12.215 12.215 0 01-1.839-.222 11.746 11.746 0 01-2.269-.701 11.868 11.868 0 01-3.785-2.552A11.867 11.867 0 010 12.632h11.368V24zm3.784-8.086l1.117 1.117-1.117 1.117a.527.527 0 00.744.745l1.117-1.117 1.117 1.117a.526.526 0 10.745-.745l-1.117-1.117 1.117-1.117a.527.527 0 00-.745-.744l-1.117 1.117-1.117-1.117a.526.526 0 10-.744.744zM12.632 24V12.632H24a11.797 11.797 0 01-.923 4.108 11.87 11.87 0 01-2.552 3.785 11.868 11.868 0 01-4.257 2.74l-.005.002c-.16.06-.321.115-.483.168l-.004.001c-.761.247-1.544.415-2.342.503l-.05.005a12.217 12.217 0 01-.752.056zm6.504-16.545a.524.524 0 000-1.048h-4.19a.524.524 0 100 1.048h4.19zM16.768.925a11.81 11.81 0 013.767 2.54 11.81 11.81 0 012.728 4.24v.001c.06.16.115.32.167.48l.002.005c.245.757.412 1.536.5 2.33l.005.051a12.124 12.124 0 01.056.747H12.68V.007a11.731 11.731 0 014.088.919z"/>
</svg>
