<svg viewBox="0 0 22 24">
<path fill="currentColor" fill-rule="evenodd" clip-rule="evenodd" d="M4.708 14.677a.631.631 0 01-.646-.646v-1.385c0-.37.276-.646.646-.646h1.107c.37 0 .647.277.647.646v1.385c0 .369-.277.646-.647.646H4.708zm0 5.446a.631.631 0 01-.646-.646v-1.385c0-.369.276-.646.646-.646h1.107c.37 0 .647.277.647.646v1.385c0 .37-.277.646-.647.646H4.708zm5.815-5.446c-.461 0-.738-.277-.646-.646v-1.385c0-.37.277-.646.646-.646h1.108c.369 0 .646.277.646.646v1.385c0 .369-.277.646-.646.646h-1.108zm0 5.446c-.461 0-.738-.277-.646-.646v-1.385c0-.369.277-.646.646-.646h1.108c.369 0 .646.277.646.646v1.385c0 .37-.277.646-.646.646h-1.108zm5.723-5.446c-.37 0-.738-.277-.646-.646v-1.385c0-.37.277-.646.646-.646h1.108c.37 0 .646.277.646.646v1.385c0 .369-.277.646-.646.646h-1.108zm5.077 1.938c-.185 0-.461-.184-.461-.553V9.785H1.385v10.338c0 1.2 1.015 2.215 2.215 2.215h14.862c1.292 0 2.307-1.015 2.307-2.215V18.37c0-.277.185-.554.462-.554s.554.277.554.554v1.754c0 1.754-1.477 3.139-3.231 3.139H3.6a3.113 3.113 0 01-3.138-3.139V5.262c0-1.662 1.292-3.139 3.046-3.139h.184V.738h3.97v1.385h6.83V.738h4.062v1.293h.184c1.662.092 2.954 1.477 3.047 3.23v10.8c0 .277-.185.554-.462.554zM15.231 1.57V4.8h2.492V1.57h-2.492zm-10.8 0V4.8h2.584V1.57H4.431zm16.338 7.2V5.077c0-1.108-.83-2.123-2.03-2.215h-.277V5.63h-3.97V2.954H7.754V5.63H3.692V2.954h-.277c-1.107.092-2.03 1.108-2.03 2.215v3.6h19.384z"/>
</svg>
