<svg viewBox="0 0 24 22">
<path fill="currentColor" fill-rule="evenodd" clip-rule="evenodd" d="M23.039 14.901l.001-.151a.643.643 0 00-.643-.648.653.653 0 00-.478.206l-2.863 3.074a7.207 7.207 0 00-.185.207c-.284.33-.553.64-1.266.64h-5.243a.48.48 0 110-.96h4.04c.223 0 .44-.09.585-.26a.744.744 0 000-.966.765.765 0 00-.586-.261h-2.74c-.466 0-1.358-.22-2.392-.475-.877-.216-1.871-.461-2.246-.461-.492 0-1.647.364-2.438.655v4.868c1.083.289 2.321.535 3.943.535h6.59a3.17 3.17 0 002.524-1.262l3.267-4.357a.652.652 0 00.13-.384zM11.654 9.817h2.713V6.362h-2.713v3.455zM7.562 6.353v7.813c.533-.154 1.083-.28 1.46-.28.493 0 1.456.237 2.477.489.85.21 1.813.447 2.163.447h2.76a1.702 1.702 0 011.605 2.274c.033-.036.071-.08.118-.135.06-.069.128-.147.208-.234l.106-.113V6.353h-3.132v3.704a.72.72 0 01-.72.72h-3.193a.72.72 0 01-.72-.72V6.353H7.562zm1.612-5.345v4.385h7.673V1.008H14.91v1.713a.72.72 0 01-.72.72h-2.357a.72.72 0 01-.72-.72V1.008H9.174zm2.898 1.473h1.877V1.008h-1.877v1.473zm10.333 10.661A1.61 1.61 0 0124 14.762l-.001.146c-.003.342-.117.68-.322.953l-3.267 4.357a4.135 4.135 0 01-3.293 1.646h-6.589a15.65 15.65 0 01-3.976-.512.72.72 0 01-.69.512H2.095a.48.48 0 110-.96h3.523l.006-.17v-5.888H.96v4.924a.48.48 0 11-.96 0v-5.164a.72.72 0 01.72-.72h5.143a.72.72 0 01.709.6l.03-.011V6.113a.72.72 0 01.72-.72h.892V.768a.72.72 0 01.72-.72h8.201c.371 0 .672.3.672.672v4.673h.892a.72.72 0 01.72.72v9.47l1.797-1.93c.307-.328.74-.516 1.19-.51zM.468 20.935a.468.468 0 110 .936.468.468 0 010-.936z"/>
</svg>
