<svg viewBox="0 0 24 21">
<path fill="currentColor" fill-rule="evenodd" clip-rule="evenodd" d="M20.9824739,16.6231307 C20.924265,16.8456716 20.7303309,17 20.5088392,17 L8.36008093,17 C8.02795792,17 7.73697073,16.7685073 7.64971468,16.4347258 L3.6192642,1.02259004 L0.49082246,1.02259004 C0.219715669,1.02259004 0,0.793663554 0,0.511265183 C0,0.22892649 0.219715669,0 0.49082246,0 L3.80678164,0 C4.13890465,0 4.42989184,0.23161202 4.51720519,0.565393527 L8.54759837,15.9774696 L20.5088392,15.9774696 C20.8324829,15.9774696 21.0674956,16.2979428 20.9824739,16.6231307 Z M12.823038,10.6608146 L11.0212229,5.58095425 C10.9342537,5.33586031 11.122454,5.08303505 11.4416674,5.01629863 C11.7608109,4.94950852 12.0900216,5.09404146 12.1769909,5.33918908 L13.978806,10.4189957 C14.0657053,10.6641434 13.877505,10.9169686 13.5583615,10.983705 C13.239218,11.0504951 12.9100073,10.9059085 12.823038,10.6608146 Z M17.4416938,10.9837014 C17.1225571,10.916965 16.934291,10.6641397 17.0211884,10.4189921 L18.8230346,5.33918541 C18.9100019,5.09409148 19.2392055,4.94950485 19.5583421,5.01629496 C19.8775487,5.08308507 20.0657449,5.33591033 19.9787776,5.58100427 L18.1770013,10.6608109 C18.090034,10.9059585 17.7608304,11.0504915 17.4416938,10.9837014 Z M10.95952,19.0133623 C10.95952,20.1105797 10.0827771,21.000029 9.00123429,21.000029 C7.91974857,21.000029 7.04300571,20.1105797 7.04300571,19.0133623 C7.04300571,17.9161449 7.91974857,17.0266957 9.00123429,17.0266957 C10.0827771,17.0266957 10.95952,17.9161449 10.95952,19.0133623 Z M20.9958203,19.0133623 C20.9958203,20.1105797 20.106313,21.000029 19.0091536,21.000029 C17.9119942,21.000029 17.0225449,20.1105797 17.0225449,19.0133623 C17.0225449,17.9161449 17.9119942,17.0266957 19.0091536,17.0266957 C20.106313,17.0266957 20.9958203,17.9161449 20.9958203,19.0133623 Z M15.5,11 C15.2238823,11 15,10.7928781 15,10.5373107 L15,5.46268925 C15,5.2071219 15.2238823,5 15.5,5 C15.7761177,5 16,5.2071219 16,5.46268925 L16,10.5373107 C16,10.7928781 15.7761177,11 15.5,11 Z M7.71323431,3 L23.2604068,3 C23.7477462,3 24.1016885,3.47479809 23.9735836,3.95672935 L22.3449773,10.0847138 C22.2865334,10.3045452 22.0917587,10.4570536 21.8694302,10.4570536 C21.5445373,10.4570536 21.3085182,10.1405412 21.3939407,9.81925367 L22.9378724,4.01013972 L8.03576877,4.01013972 L10.4225928,12.9898603 L20.5512209,12.9898603 L20.8550602,11.8468431 C20.9134466,11.6270117 21.1082788,11.4745033 21.3305498,11.4745033 C21.6554427,11.4745033 21.8914617,11.7910747 21.8060968,12.1123622 L21.4527873,13.4415493 C21.3651789,13.7712669 21.0730169,14 20.739553,14 L10.2343183,14 C9.90091186,14 9.6086923,13.7712669 9.52108396,13.4416082 L7,3.95672935 C6.87189509,3.47485704 7.22589492,3 7.71323431,3 Z"/>
</svg>
