<svg viewBox="0 0 24 24">
<path fill="currentColor" fill-rule="evenodd" clip-rule="evenodd" d="M17.999 11.287a.457.457 0 010 .914h-6.307a.455.455 0 01-.277-.094l-.013-.01-.013-.012-.02-.018-.018-.02-.011-.012-.01-.014a.455.455 0 01-.095-.277V3.977a.457.457 0 01.914 0v7.31H18zm-.092 9.338c.46 0 .646.599.263.854a11.647 11.647 0 01-6.482 1.962c-3.228 0-6.15-1.312-8.262-3.425A11.653 11.653 0 010 11.744c0-3.228 1.303-6.15 3.425-8.272A11.655 11.655 0 0111.688.047a11.69 11.69 0 018.271 3.425 11.691 11.691 0 013.426 8.272c0 2.76-.96 5.296-2.56 7.3a.467.467 0 11-.734-.579 10.759 10.759 0 001.512-2.535 10.68 10.68 0 00.846-4.186c0-1.45-.285-2.86-.846-4.186a10.804 10.804 0 00-2.305-3.425 10.8 10.8 0 00-3.424-2.305 10.68 10.68 0 00-4.186-.846c-1.45 0-2.859.285-4.184.846a10.736 10.736 0 00-3.417 2.306 10.692 10.692 0 00-3.152 7.61c0 2.875 1.12 5.578 3.152 7.61a10.73 10.73 0 0011.787 2.305 10.777 10.777 0 001.772-.954.47.47 0 01.26-.08z"/>
</svg>
