<svg viewBox="0 0 20 24">
<path fill="currentColor" fill-rule="evenodd" clip-rule="evenodd" d="M13.006 4.138c1.038 0 1.886.853 1.89 1.903v16.056c0 1.05-.847 1.903-1.89 1.903H1.89A1.898 1.898 0 010 22.097V6.041c0-1.05.847-1.903 1.89-1.903h11.116zm0 .968H1.89a.933.933 0 00-.928.935v16.056c0 .516.416.935.928.935h11.116c.512 0 .929-.42.929-.935V6.044a.938.938 0 00-.929-.938zm4.35 15.537h-.943a.49.49 0 01-.5-.479.49.49 0 01.5-.479h.944c.81 0 1.465-.628 1.465-1.404V2.395c0-.775-.656-1.404-1.465-1.404H5.797c-.81 0-1.467.629-1.467 1.404v.356a.49.49 0 01-.5.48.49.49 0 01-.5-.48v-.356C3.33 1.091 4.434.034 5.796.034h11.56c1.362 0 2.466 1.057 2.466 2.361v15.886c0 1.305-1.104 2.362-2.465 2.362z"/>
</svg>
