<svg viewBox="0 0 24 24">
<path fill="currentColor" fill-rule="evenodd" clip-rule="evenodd" d="M23 11.452V4a3 3 0 0 0-3-3H4a3 3 0 0 0-3 3v3.89l3.463 6.974a.5.5 0 0 0 .869.048l2.984-4.649a1.5 1.5 0 0 1 2.397-.17l3.216 3.724a.5.5 0 0 0 .791-.045l3.366-4.933a1.5 1.5 0 0 1 2.33-.184L23 11.452zm-3.31-2.11a.5.5 0 0 0-.778.06l-3.366 4.934a1.5 1.5 0 0 1-2.374.135l-3.216-3.724a.5.5 0 0 0-.799.056l-2.983 4.65a1.5 1.5 0 0 1-2.606-.144L1 10.092V20a3 3 0 0 0 3 3h16a3 3 0 0 0 3-3v-7.15l-3.31-3.509zM4 0h16a4 4 0 0 1 4 4v16a4 4 0 0 1-4 4H4a4 4 0 0 1-4-4V4a4 4 0 0 1 4-4z"/>
</svg>

