<svg viewBox="0 0 24 21">
<path fill="currentColor" fill-rule="evenodd" clip-rule="evenodd" d="M20.554 0H1.296C.72 0 .253.467.253 1.043V14.971c0 .576.467 1.043 1.043 1.043h9.134v3.17h1.447v-3.17h8.677c.576 0 1.043-.467 1.043-1.043V1.043C21.597.467 21.13 0 20.554 0" opacity=".3"/>
<path fill="currentColor" fill-rule="evenodd" clip-rule="evenodd" d="M10.737 19.732h1.588v-2.1h-1.588v2.1zM22.354 0c.634 0 1.148.514 1.148 1.148v15.336c0 .634-.514 1.149-1.148 1.149H21.19a.574.574 0 110-1.149h1.164v-2.252H1.148v-1.148h21.206V1.148H1.148v15.336H18.32a.574.574 0 010 1.149h-4.847v2.099h2.03a.574.574 0 110 1.148H7.481a.574.574 0 010-1.148h2.108v-2.1H1.15A1.148 1.148 0 010 16.485V1.148C0 .514.514 0 1.148 0h21.206zM12.325 15.313a.574.574 0 11-1.148 0 .574.574 0 011.148 0z"/>
</svg>
