<svg viewBox="0 0 22 24">
<path fill="currentColor" fill-rule="evenodd" clip-rule="evenodd"  d="M21.551 23c.248 0 .449.204.449.457a.453.453 0 0 1-.449.456H1.45A.453.453 0 0 1 1 23.457c0-.253.201-.457.449-.457H21.55zM2.07 15.688l-.926 3.888.272-.272a.457.457 0 0 1 .646.646l-.272.272 3.889-.926-3.609-3.608zM14.33 2.97l-.265.264 4.067 4.067.264-.265L14.33 2.97zm.91-.91l-.265.264 4.067 4.067.264-.265L15.24 2.06zm4.373-.307a2.881 2.881 0 0 0-3.699-.31l4.009 4.009a2.88 2.88 0 0 0-.31-3.7zM.077 20.883a.821.821 0 0 1-.055-.534l1.312-5.511.004-.013a.473.473 0 0 1 .026-.071.82.82 0 0 1 .101-.19l.005-.008.025-.032a.505.505 0 0 1 .055-.066L14.9 1.108a3.794 3.794 0 0 1 5.359 0 3.793 3.793 0 0 1 0 5.357l-10.8 10.799a.457.457 0 1 1-.645-.646l8.672-8.672L13.42 3.88 2.486 14.813l.603.602 7.688-7.689a.456.456 0 0 1 .667.023c.16.182.14.462-.032.634l-7.678 7.678 1.571 1.57 7.689-7.688a.457.457 0 0 1 .666.022c.16.183.14.462-.032.634l-7.677 7.678.602.602.647-.647a.457.457 0 0 1 .646.646l-.938.938a.47.47 0 0 1-.085.07.823.823 0 0 1-.222.12.523.523 0 0 1-.088.03l-5.496 1.308a.831.831 0 0 1-.776-.22.814.814 0 0 1-.164-.242z"/>
</svg>
