<svg viewBox="0 0 500 500">
<path fill="currentColor" fill-rule="evenodd" clip-rule="evenodd" d="M479.996 406.007v19.313c0 30.199-24.48 54.68-54.68 54.68h-92.879l.26-151.525h49.26c10.391 0 19.148-7.782 20.371-18.1l6.501-54.842c.5-4.218-.145-8.536-2.104-12.304a20.527 20.527 0 00-18.215-11.074h-56.09v-36.251c0-17.818 3.6-25.267 25.906-25.267l27.853-.012c11.305-.008 20.503-9.211 20.503-20.515v-46.621c0-11.33-9.185-20.515-20.516-20.515h-45.383c-30.43 0-56.14 9.515-74.354 27.516-18.852 18.633-28.817 45.688-28.817 78.24v43.424H203.6c-5.16 0-10.237 1.739-14.088 5.173-4.456 3.973-6.917 9.508-6.895 15.42l.214 55.29c.044 11.268 9.246 20.436 20.514 20.436h34.545l-.26 151.525H74.681c-30.2 0-54.68-24.482-54.68-54.681V74.68C20 44.48 44.48 20 74.681 20h350.632c30.151 0 54.681 24.53 54.682 54.68v291.103c0 5.523 4.478 10 10 10s10-4.477 10-10V74.68C499.996 33.5 466.493 0 425.314 0H74.681C33.435 0 .001 33.436.001 74.68v350.637c0 41.245 33.434 74.68 74.68 74.68h182.913l.33-191.524h-54.58a.513.513 0 01-.514-.512l-.214-55.29c0-.058 0-.213.151-.366.151-.151.306-.151.365-.151h54.48V188.73c0-27.087 7.91-49.223 22.876-64.015 14.39-14.223 35.24-21.741 60.295-21.741h45.383c.283 0 .516.232.516.515v46.62a.517.517 0 01-.515.516l-27.846.012c-41.143 0-45.9 25.835-45.9 45.267v56.25h76.09c.068 0 .23 0 .383.174.154.173.135.327.126.403l-6.553 55.29a.515.515 0 01-.51.454h-69.225L312.402 500h112.914c41.244 0 74.68-33.435 74.68-74.68v-19.313c0-5.523-4.478-10-10-10s-10 4.477-10 10"/>
</svg>
