<svg viewBox="0 0 500 345">
<path fill="currentColor" fill-rule="evenodd" clip-rule="evenodd" d="M2 320.464h442.681V17.145H2z" opacity=".3"/>
<path fill="currentColor" fill-rule="evenodd" clip-rule="evenodd" d="M500 335.694c0 5.14-4.153 9.306-9.277 9.306H0V.75h500v287.852c0 5.14-4.153 9.306-9.277 9.306s-9.279-4.166-9.279-9.306V19.362H18.555v307.026h472.168c5.124 0 9.277 4.166 9.277 9.306zM254.132 234.387c0-6.792 4.086-12.297 9.126-12.297H449.95c5.04 0 9.126 5.505 9.126 12.297 0 6.791-4.086 12.297-9.126 12.297H263.258c-5.04 0-9.126-5.506-9.126-12.297zm0 40.99c0-6.792 4.086-12.297 9.126-12.297H449.95c5.04 0 9.126 5.505 9.126 12.297 0 6.79-4.086 12.296-9.126 12.296H263.258c-5.04 0-9.126-5.506-9.126-12.296zm-101.984-87.609c19.873 4.528 37.688 15.351 50.272 30.581 4.87 5.892.501 14.481-7.42 14.48h-.26c-2.873 0-5.616-1.207-7.378-3.347-13.304-16.145-34.056-26.028-56.197-26.028-35.925 0-65.707 25.281-70.394 57.97h150.673c5.097 0 9.547 3.628 9.876 8.425.361 5.257-4.053 9.626-9.549 9.626H40.99v-9.025c0-40.062 29.524-73.738 69.13-82.703-23.785-8.14-40.823-29.66-40.823-54.868 0-32.174 27.754-58.349 61.87-58.349 34.112 0 61.867 26.175 61.867 58.35 0 25.23-17.069 46.765-40.885 54.888zM88.436 132.88c0 22.221 19.168 40.3 42.73 40.3 23.56 0 42.727-18.079 42.727-40.3 0-22.22-19.167-40.299-42.728-40.299-23.56 0-42.729 18.08-42.729 40.3z"/>
</svg>
