<svg viewBox="0 0 24 24">
<path fill="currentColor" fill-rule="evenodd" clip-rule="evenodd" d="M23.7 11.8l-1.9-1.9c-.2-.2-.5-.2-.7 0-.1.1-.1.2-.1.3 0 .1 0 .2.1.3l1.7 1.7-4.9 4.9-1.2-1.2c.2-.1.4-.2.6-.4.7-.7.7-1.9 0-2.7-.7-.7-1.9-.7-2.7 0-.2.2-.3.4-.4.6L13 12.2l-.2-.2 1.6-1.6c.2-.2.2-.4.2-.6 0-.2-.2-.4-.5-.4l-.3-.1c-.2 0-.3-.1-.4-.2-.3-.3-.3-.9 0-1.3.3-.3.9-.3 1.3 0 .1.1.2.3.2.4l.1.2c.1.2.2.4.4.5.2.1.5 0 .6-.2l1.1-1.1.5-.5 2.5 2.5c.2.2.5.2.7 0 .1-.1.1-.2.1-.3 0-.1 0-.2-.1-.3L12.3.5c-.2-.2-.7-.2-.9 0L.6 11.3c-.2.2-.2.7 0 .9l11.3 11.3c.1.1.3.2.5.2s.3-.1.5-.2l10.9-10.9c.1-.2.1-.6-.1-.8zM12.8 9.6c.2.2.4.3.6.4l-1.3 1.3-.1-.1-1.7-1.7c-.2-.2-.4-.2-.6-.2-.2.1-.4.3-.4.5l-.1.3c0 .1-.1.3-.2.4-.4.4-1 .4-1.4 0-.4-.4-.4-1 0-1.4.1-.1.2-.2.4-.2l.3-.1c.2-.1.4-.2.5-.4.1-.2 0-.5-.2-.6L7 6.2l4.9-4.9L17 6.4l-1.3 1.3c-.1-.2-.2-.4-.4-.6-.7-.7-1.9-.7-2.6 0-.7.7-.7 1.8.1 2.5zM7 8.4c-.1 0-.1 0 0 0-.7.8-.7 2 0 2.7.7.7 1.9.7 2.7 0 .2-.2.3-.4.4-.6l1.4 1.4-.1.1-1.5 1.5c-.2.2-.2.4-.2.6.1.2.2.4.5.5l.3.1c.2 0 .3.1.4.2.3.3.3.9 0 1.3s-.9.3-1.3 0c-.1-.1-.2-.3-.2-.4l-.1-.3c-.1-.2-.2-.4-.5-.5-.2-.1-.5 0-.6.2l-1.1 1.1-.5.5-5.1-5.1 4.9-4.9L7.5 8c-.2.1-.4.3-.5.4zm1.5 7.9c.1.2.2.5.4.6.3.3.8.5 1.3.5s.9-.2 1.3-.5c.3-.3.5-.8.5-1.3s-.2-.9-.5-1.3c-.2-.2-.4-.3-.6-.4l1.3-1.3.3.3 1.5 1.5c.2.2.4.2.6.2.2-.1.4-.2.4-.5l.1-.3c0-.1.1-.3.2-.4.4-.4 1-.4 1.4 0 .4.4.4 1 0 1.4-.1.1-.2.2-.4.2l-.3.2c-.2.1-.4.2-.5.5-.1.3 0 .5.2.6l1.5 1.5-4.9 4.9-5.1-5.1 1.3-1.3z" fill="#0550A0" fill-rule="evenodd"/>
</svg>
