<svg viewBox="0 0 463 494">
<path fill="currentColor" fill-rule="evenodd" clip-rule="evenodd" d="M118.528 194.159a14.562 14.562 0 00-.416 11.637l13.824 35.1-14.534 36.895a14.576 14.576 0 00-.001 10.685l14.535 36.9-14.534 36.9a14.586 14.586 0 000 10.685l14.434 36.646-23.9 55.43a12.287 12.287 0 01-10.79 6.356 12.306 12.306 0 01-8.718-3.618 12.302 12.302 0 01-3.617-8.72V200.661a14.577 14.577 0 00-10.334-13.948c-14.543-4.425-27.26-12.211-37.414-22.365C20.709 147.993 11 125.496 11 100.992c0-49.405 40.196-89.6 89.6-89.6 16.381 0 31.749 4.425 44.977 12.135A90.158 90.158 0 01170.555 20c22.947-.002 45.886 8.732 63.356 26.2 27.883 27.884 34.327 70.056 16.037 104.946a14.584 14.584 0 00-.838 11.614 14.563 14.563 0 007.935 8.523l34.595 15.045 15.81 36.366a14.59 14.59 0 007.557 7.556l36.369 15.814 15.815 36.369a14.592 14.592 0 007.555 7.556l36.119 15.705 22.295 56.095a12.287 12.287 0 01-3.135 12.124 12.3 12.3 0 01-8.722 3.606c-3.16 0-6.32-1.202-8.724-3.607L229.866 191.199c-2.802-2.803-42.091 13.832-60.912 10.816-15.787-2.53-31.682-5.884-45.716-13.437a14.542 14.542 0 00-4.71 5.58zM105.256 48.206a89.2 89.2 0 00-13.568 18.812 90.441 90.441 0 0113.568-18.812zm81.373 68.424c15.596-15.596 15.596-40.973 0-56.57-15.596-15.595-40.973-15.594-56.568.002-15.596 15.595-15.597 40.972-.001 56.568 15.596 15.596 40.973 15.596 56.569 0zm-48.427-42.426c7.798-7.798 20.486-7.798 28.284 0 7.798 7.797 7.798 20.486 0 28.284-7.798 7.798-20.486 7.798-28.284 0-7.798-7.798-7.798-20.486 0-28.284z" opacity=".3"/>
<path fill="currentColor" fill-rule="evenodd" clip-rule="evenodd" d="M144.202 74.204c-7.798 7.798-7.798 20.486 0 28.284 7.798 7.798 20.486 7.798 28.284 0 7.798-7.798 7.798-20.487 0-28.284-7.798-7.798-20.485-7.798-28.284 0zm42.427 42.426c-15.597 15.596-40.973 15.596-56.57 0-15.595-15.595-15.594-40.972.001-56.568 15.596-15.596 40.972-15.596 56.57-.001 15.594 15.597 15.594 40.974 0 56.569zm72.321 34.515c18.29-34.889 11.846-77.062-16.036-104.944-17.47-17.47-40.409-26.203-63.357-26.202-22.94.002-45.89 8.736-63.356 26.202-34.935 34.934-34.936 91.778 0 126.714 17.326 17.327 40.1 26.37 63.228 26.37 14.36 0 28.857-3.487 42.27-10.64a14.571 14.571 0 0117.169 2.554L421.581 373.91a12.298 12.298 0 008.723 3.608c3.16 0 6.318-1.203 8.723-3.606a12.29 12.29 0 003.136-12.124l-22.296-56.095-36.118-15.705a14.6 14.6 0 01-7.557-7.555l-15.814-36.37-36.369-15.815a14.583 14.583 0 01-7.556-7.556l-15.812-36.366-34.594-15.044a14.573 14.573 0 01-7.935-8.524 14.584 14.584 0 01.838-11.614zM257.055 32.06c32.726 32.724 41.305 81.548 22.177 123.148l29.386 12.78 7.224 3.141 3.141 7.226 14.96 34.406 34.41 14.963 7.225 3.141 3.142 7.224 14.962 34.411 34.161 14.854 7.563 3.29 3.047 7.665 22.295 56.095.365.916.273.95a32.346 32.346 0 01-8.22 31.79c-6.105 6.1-14.223 9.46-22.862 9.46-8.64 0-16.76-3.361-22.865-9.464L227.512 208.127c-15.005 7.31-31.544 11.159-48.083 11.159-29.112 0-56.589-11.446-77.372-32.228C81.385 166.383 70 138.86 70 109.558c0-29.302 11.386-56.825 32.06-77.498C122.73 11.389 150.251.003 179.562 0l.003 20V0c29.296 0 56.817 11.386 77.49 32.06zM145.792 370.226l13.652 34.658 3.023 7.675-3.266 7.574-23.899 55.43-.392.907-.478.863A32.345 32.345 0 01106.14 494c-8.629-.003-16.745-3.368-22.854-9.476-6.11-6.11-9.475-14.23-9.475-22.861V207.207c-15.78-5.441-30.196-14.415-41.891-26.11C11.336 160.514-.001 132.992 0 103.6c0-29.237 11.411-56.75 32.131-77.47 9.768-9.767 21.047-17.462 33.303-22.87C72.074.33 79.54 5.185 79.54 12.444c0 3.997-2.388 7.578-6.04 9.202-31.549 14.023-53.612 45.79-53.5 82.24.075 24.393 9.772 46.779 26.063 63.069 10.154 10.154 22.871 17.94 37.414 22.366a14.544 14.544 0 016.06 3.635 14.57 14.57 0 014.274 10.312v258.395c0 3.4 1.383 6.485 3.617 8.719a12.298 12.298 0 008.718 3.618c4.515 0 8.614-2.426 10.79-6.356l23.9-55.43-14.435-36.645a14.604 14.604 0 010-10.686l14.535-36.9-14.535-36.9a14.591 14.591 0 010-10.684l16.179-40.695a9.95 9.95 0 0110.629-6.177c6.884.95 10.32 7.435 7.719 13.879l-1.384 3.428-13.752 34.908 13.752 34.912 2.887 7.33-2.887 7.329-13.752 34.913z"/>
</svg>
