<svg viewBox="0 0 17 13">
<path fill="currentColor" fill-rule="evenodd" clip-rule="evenodd" d="M.781.25C.596.253.5.434.5.531V2.22c0 .147.134.281.281.281H2.47a.292.292 0 00.281-.281V.53A.292.292 0 002.469.25H.78zM1.25 1H2v.75h-.75V1zm3.414 0c-.229 0-.414.168-.414.375s.185.375.414.375h11.172c.229 0 .414-.168.414-.375S16.065 1 15.836 1H4.664zM.78 5.5C.596 5.503.5 5.684.5 5.781V7.47c0 .147.134.281.281.281H2.47a.292.292 0 00.281-.281V5.78a.292.292 0 00-.281-.281H.78zm.469.75H2V7h-.75v-.75zm3.414 0c-.229 0-.414.168-.414.375S4.435 7 4.664 7h11.172c.229 0 .414-.168.414-.375s-.185-.375-.414-.375H4.664zM.78 10.75c-.185.003-.281.184-.281.281v1.688c0 .147.134.281.281.281H2.47a.292.292 0 00.281-.281V11.03a.292.292 0 00-.281-.281H.78zm.469.75H2v.75h-.75v-.75zm3.414 0c-.229 0-.414.168-.414.375s.185.375.414.375h11.172c.229 0 .414-.168.414-.375s-.185-.375-.414-.375H4.664z"/>
</svg>
