<svg viewBox="0 0 500 332">
<path fill="currentColor" fill-rule="evenodd" clip-rule="evenodd" d="M6.999 298.461h463V17.567h-463z" opacity=".3"/>
<path fill="currentColor" fill-rule="evenodd" clip-rule="evenodd" d="M480 296.46L340.602 154.919 480 31.544V296.46zM32.765 312l141.4-143.585 62.276 54.69 3.62 3.202a14.998 14.998 0 0019.882 0l5.532-4.895 60.348-52.998L467.231 312H32.766zM20 31.544l139.394 123.369L20 296.46V31.544zm426.914-10.977h15L262.391 197.503l-12.396 10.886-10.89-9.564L38.085 20.567h408.828zM0 15.567V317c0 8.285 6.716 15 15 15h470c8.283 0 15-6.715 15-15V15.567c0-8.284-6.717-15-15-15H15c-8.284 0-15 6.716-15 15z"/>
</svg>
