<svg viewBox="0 0 23 25">
<path fill="currentColor" fill-rule="evenodd" clip-rule="evenodd" d="M21.838 5.265V3a1.5 1.5 0 00-1.5-1.5H3A1.5 1.5 0 001.5 3v2.99a2.5 2.5 0 011.954-2.317l7.743-1.724.206-.002 8.57 1.71c.892.179 1.578.81 1.865 1.608zm0 1.688a2.5 2.5 0 01-.135.31c-5.232 10.07-8.531 15.198-10.252 15.72-1.193.363-1.914-.464-2.1-2.093-.155-1.352-.001-3.416.455-6.21L4.17 12.95a.5.5 0 01-.32-.298L1.668 7.018a2.498 2.498 0 01-.167-.779V22A1.5 1.5 0 003 23.5h17.338a1.5 1.5 0 001.5-1.5V6.953zM3 .5h17.338a2.5 2.5 0 012.5 2.5v19a2.5 2.5 0 01-2.5 2.5H3A2.5 2.5 0 01.5 22V3A2.5 2.5 0 013 .5zm8.311 2.448L3.671 4.65A1.5 1.5 0 002.6 6.656l2.097 5.409 5.821 1.787a.5.5 0 01.347.561c-.498 2.93-.669 5.059-.52 6.363.126 1.096.377 1.384.816 1.25 1.31-.397 4.646-5.584 9.655-15.225a1.5 1.5 0 00-1.037-2.162l-8.467-1.69z"/>
</svg>
