<svg viewBox="0 0 388 531">
	<path fill="currentColor" fill-rule="evenodd" clip-rule="evenodd" d="M120.793 334.105L60.266 229.526c-34.5-59.612-24.72-135.397 23.785-184.298C112.755 16.291 151.011.229 191.771.003c.29-.002.582-.003.873-.003 40.434 0 78.523 15.615 107.342 44.027l2.09 2.061c22.78 22.459 37.263 50.67 42.896 80.453 1.161 6.142-3.593 11.817-9.844 11.817-4.818 0-8.927-3.44-9.825-8.175-4.907-25.858-17.488-50.35-37.269-69.852l-2.09-2.062c-25.824-25.461-59.58-38.173-93.315-38.173-34.24 0-68.457 13.085-94.379 39.217-42.162 42.505-50.663 108.379-20.674 160.194l98.538 170.255c3.753 6.486 10.467 10.361 17.96 10.367h.017c7.486 0 14.198-3.864 17.96-10.338l97.602-168.046a132.672 132.672 0 0016.193-44.964c.805-4.848 4.955-8.423 9.87-8.423 6.171 0 10.886 5.536 9.878 11.624a152.67 152.67 0 01-18.646 51.808l-59.595 102.607 50.222 19.779a9.997 9.997 0 015.574 5.473l63.474 153.056c3.317 7.999-4.409 16.146-12.572 13.258l-92.546-32.747-83.837 36.209a10.006 10.006 0 01-7.93-.001l-83.834-36.208-92.543 32.747c-8.164 2.888-15.89-5.26-12.574-13.258l63.468-153.056a10 10 0 015.574-5.473l50.964-20.07zm10.132 17.506l-49.82 19.619-53.238 128.385 75.066-26.562a10 10 0 017.3.247l83.47 36.05 83.475-36.05a10 10 0 017.3-.247l75.065 26.56L306.3 371.23l-49.108-19.339-27.847 47.945c-7.382 12.708-20.56 20.292-35.254 20.293h-.032c-14.708-.012-27.888-7.619-35.255-20.348l-27.88-48.17zm62.78-255.89c-31.78 0-57.638 25.855-57.638 57.637s25.857 57.638 57.638 57.638c31.782 0 57.64-25.856 57.64-57.638 0-31.782-25.857-57.638-57.64-57.638zm0 135.275c-42.81 0-77.638-34.828-77.638-77.638s34.829-77.638 77.639-77.638c42.81 0 77.638 34.828 77.638 77.638s-34.828 77.638-77.638 77.638z"/>
</svg>
