<svg viewBox="0 0 227 93">
<path fill="currentColor" fill-rule="evenodd" clip-rule="evenodd" d="M154.374 25.978v17.375h-5.609V25.978c0-6.196 5.022-11.219 11.218-11.219v5.61a5.61 5.61 0 00-5.609 5.61zm-137.546 0a5.61 5.61 0 00-11.219 0v17.375H0V25.978C0 19.782 5.022 14.76 11.22 14.76a11.19 11.19 0 018.413 3.802 11.189 11.189 0 018.414-3.802c6.196 0 11.218 5.023 11.218 11.22v17.374h-5.609V25.978a5.61 5.61 0 00-11.219 0v17.375h-5.609V25.978zM86.42 43.353c-6.196 0-11.219-5.022-11.219-11.218V.462h5.61v31.673a5.61 5.61 0 005.609 5.61v5.608zm20.568-17.375a5.61 5.61 0 00-11.219 0v17.375h-5.608V.531h5.608v15.733a11.172 11.172 0 015.61-1.505c6.196 0 11.218 5.023 11.218 11.22v17.374h-5.609V25.978zM57.233 43.354c-6.893 0-12.64-4.901-13.948-11.41a14.288 14.288 0 010-5.636c1.307-6.508 7.055-11.411 13.948-11.411 6.894 0 12.642 4.903 13.948 11.41.184.912.28 1.854.28 2.819 0 .965-.096 1.908-.28 2.818h-22.1a8.626 8.626 0 008.152 5.806 8.608 8.608 0 006.937-3.5l4.506 3.33a14.202 14.202 0 01-11.443 5.774zm0-22.853a8.628 8.628 0 00-8.153 5.807h16.307a8.63 8.63 0 00-8.154-5.807zm87.792 8.556c0 7.896-6.401 14.297-14.297 14.297-7.896 0-14.297-6.401-14.297-14.297 0-7.896 6.4-14.297 14.297-14.297 7.896 0 14.297 6.4 14.297 14.297zm-14.297 8.693a8.693 8.693 0 008.693-8.693 8.693 8.693 0 10-17.386 0 8.692 8.692 0 008.693 8.693zm-44.89 37.184c0-6.196 5.023-11.218 11.22-11.218v5.609a5.61 5.61 0 00-5.61 5.609V92.31h-5.61V74.934zm27.249-10.943c6.86 0 12.579 4.878 13.88 11.355.183.907.278 1.845.278 2.805 0 .961-.095 1.9-.277 2.804h-21.996a8.585 8.585 0 008.115 5.778 8.57 8.57 0 006.904-3.482l4.484 3.314a14.14 14.14 0 01-11.388 5.745c-6.86 0-12.58-4.878-13.882-11.355a14.29 14.29 0 010-5.609c1.302-6.477 7.022-11.355 13.882-11.355zm-8.115 11.355H121.2a8.587 8.587 0 00-16.23 0zm26.08-11.493h5.61V92.31h-5.61V63.853zm23.655-.137c7.896 0 14.297 6.4 14.297 14.297 0 7.895-6.4 14.297-14.297 14.297-7.896 0-14.297-6.402-14.297-14.297 0-7.897 6.401-14.297 14.297-14.297zm0 22.99a8.693 8.693 0 008.693-8.693 8.693 8.693 0 10-17.386 0c0 4.8 3.892 8.693 8.693 8.693zm-97.896-11.47a8.571 8.571 0 017.395 4.269 8.539 8.539 0 011.14 4.268c0 4.707-3.828 8.537-8.535 8.537H45.219v-5.601H56.81a2.94 2.94 0 002.934-2.936 2.938 2.938 0 00-2.934-2.933h-4.196a8.572 8.572 0 01-7.396-4.27 8.542 8.542 0 01-1.141-4.268c0-4.707 3.829-8.536 8.537-8.536h8.628v5.602h-8.628a2.938 2.938 0 00-2.936 2.934 2.938 2.938 0 002.936 2.934h4.196zm19.612-25.818v14.298h5.609v5.608h-5.61v11.767a5.61 5.61 0 005.61 5.61v5.61c-6.196 0-11.218-5.024-11.218-11.22V69.324h-5.467v-5.608h5.467V49.418h5.609zM34.758 64.93c2.2.94 4.116 2.417 5.579 4.27v23.032h-5.58v-1.135c-1.712.73-3.6 1.135-5.578 1.135-7.853 0-14.22-6.366-14.22-14.218 0-7.854 6.367-14.22 14.22-14.22 1.979 0 3.866.405 5.579 1.136zm0 19.688v-13.21a8.646 8.646 0 100 13.21zM0 74.934c0-6.196 5.022-11.218 11.219-11.218v5.609a5.61 5.61 0 00-5.61 5.609V92.31H0V74.934z"/>
<path fill-rule="evenodd" clip-rule="evenodd" d="M190.58 14.506c7.116 0 12.905 5.79 12.905 12.906 0 7.117-5.79 12.906-12.905 12.906l-.06-.001h-.06c-7.115 0-12.905-5.788-12.905-12.905 0-7.116 5.79-12.906 12.906-12.906l.059.002.06-.002zm-.06 20.65c4.244-.031 7.687-3.492 7.687-7.744 0-4.251-3.443-7.713-7.687-7.744-4.244.03-7.687 3.493-7.687 7.744 0 4.252 3.443 7.713 7.687 7.745zm35.85 47.969a5.101 5.101 0 01-1.024 5.527 5.1 5.1 0 01-5.465 1.314l-12.277-4.344-14.01 6.05a7.772 7.772 0 01-3.07.632h-.01a7.762 7.762 0 01-3.068-.631l-8.093-3.496-5.923-2.557-1.185.42a19.138 19.138 0 001.617-5.747 2.6 2.6 0 01.686.188l14.944 6.454a2.573 2.573 0 002.046 0l14.943-6.454a2.581 2.581 0 011.884-.063l13.236 4.682-9.692-18.214-10.99-4.328-3.694 6.357a7.662 7.662 0 01-6.693 3.852h-.025a7.664 7.664 0 01-6.693-3.852l-3.07-5.288-.624-1.072-9.957 3.92a19.443 19.443 0 00-3.988-3.97l.002.002-.003-.003.038-.018 11.287-4.444-10.053-17.308a26.496 26.496 0 01-2.315-5.207c-3.113-9.266-.896-19.72 6.077-26.927l5.16-4.153A26.572 26.572 0 01190.52.532a26.579 26.579 0 0114.153 3.915l5.16 4.153c6.972 7.208 9.19 17.66 6.077 26.927a26.554 26.554 0 01-2.315 5.207l-10.053 17.308 11.287 4.444c.013.006.025.013.038.018l-.003.003a2.58 2.58 0 011.394 1.392l10.112 19.226zM192.74 66.32l16.525-28.552a21.324 21.324 0 001.728-3.812c.086-.27.17-.538.245-.81.025-.092.06-.182.094-.27a21.46 21.46 0 00.304-10.39 2.61 2.61 0 01-.396-.821 21.337 21.337 0 00-5.588-9.496l-.349-.345c-4.097-4.04-9.432-6.082-14.784-6.14-5.35.058-10.685 2.1-14.782 6.14l-.35.345a21.344 21.344 0 00-5.588 9.496c-.084.302-.22.578-.396.822a21.485 21.485 0 00.304 10.389c.036.088.07.178.095.27.075.272.158.54.245.81a21.25 21.25 0 001.727 3.812L188.3 66.32c.667 1.152 1.766 1.285 2.22 1.287.452-.002 1.553-.135 2.22-1.287z"/>
</svg>
