<svg viewBox="0 0 23 24">
<path fill="currentColor" fill-rule="evenodd" clip-rule="evenodd" d="M10.473 9.08l-.359.36c-.03.03-.06.03-.06.03-.06 0-.09-.03-.09-.09V8.122c0-.03.03-.06.03-.06.54-.42 1.378-1.109 2.097-1.768.48-.42.9-.869 1.319-1.348.09-.12.18-.21.27-.33l.149-.18.809-1.078c.18-.36.3-.749.39-1.138.15-.57.299-1.139.748-1.588.42-.42.989-.66 1.558-.63.3 0 .57.06.84.18.269.12.538.3.748.51.54.539.929 1.438.899 2.636-.03 1.857-1.079 3.296-1.738 4.254-.21.27-.39.54-.54.87.39.029.78.029 1.17.059 1.437.03 2.845.06 3.624 1.079.24.33.39.689.42 1.078.03.45-.03.899-.18 1.318-.18.48-.21 1.019-.12 1.528.06.39.06.78 0 1.139-.09.599-.36 1.138-.719 1.617-.09.12-.18.27-.24.42-.06.18-.09.39-.09.57 0 .628-.18 1.257-.539 1.797-.24.45-.569.839-.988 1.138-.15.12-.3.27-.39.42l-.03.03c-.958 1.468-1.438 2.187-2.966 2.936h-.03c-.42.12-.838.24-1.258.3-.45.06-.899.119-1.348.119-1.498 0-2.996-.18-4.434-.54-.899-.209-1.798-.389-2.726-.479h-.27l-6.28-.689H.06c-.03-.03-.06-.06-.06-.09 0-.06.03-.09.09-.09l6.758.03c.51-.03 1.019 0 1.528.06.48.09.989.21 1.498.3 2.727.6 5.603 1.228 7.58-1.138a6.638 6.638 0 00.69-1.019c.209-.42.538-.779.898-1.049.12-.09.24-.21.33-.3.688-.658.688-1.078.718-1.587 0-.33.06-.69.15-.989.09-.27.24-.509.42-.719.39-.539.839-1.198.479-2.247l-.09-.24c-.09-.18-.12-.359-.12-.539.03-.12.06-.27.15-.36.06-.089.12-.239.21-.419.12-.24.18-.479.21-.719.03-.27 0-.509-.15-.749a1.34 1.34 0 00-.6-.479c-.27-.12-.569-.21-.838-.21-.33-.03-.78-.03-1.259-.06-.958 0-2.037-.03-2.636-.3-.03-.03-.06-.06-.06-.09 0-.838.54-1.587 1.109-2.396a8.073 8.073 0 001.378-2.546c.33-1.199.06-2.187-.39-2.727-.12-.15-.3-.3-.51-.36-.179-.06-.359-.09-.538-.03-.36.09-.72.48-.93 1.2-.389 1.467-.448 1.497-1.138 2.396l-.12.15c-.21.27-.419.48-.599.719l-.27.3c-.09.09-.179.18-.299.269-.06.06-.15.12-.21.18l-.479.48c-.3.299-.45.449-.629.598-.18.15-.33.27-.66.54l-.658.509c-.18.18-.39.36-.54.51"/>
</svg>
