<svg viewBox="0 0 226.772 104.221">
<path fill="currentColor" fill-rule="evenodd" clip-rule="evenodd" d="M180.089 16.093v6.314a6.315 6.315 0 0 0-6.313 6.315v19.559h-6.315V28.722c0-6.975 5.653-12.629 12.628-12.629M31.571 16.093a12.595 12.595 0 0 0-9.471 4.28 12.596 12.596 0 0 0-9.472-4.28C5.654 16.093 0 21.747 0 28.722v19.559h6.314V28.722a6.316 6.316 0 0 1 12.629 0v19.559h6.314V28.722a6.315 6.315 0 0 1 12.628 0v19.559H44.2V28.722c0-6.975-5.654-12.629-12.629-12.629M97.28 48.281v-6.314a6.316 6.316 0 0 1-6.313-6.315V0h-6.315v35.652c0 6.975 5.653 12.629 12.629 12.629M114.12 16.093c-2.301 0-4.457.619-6.314 1.694V.077h-6.315v48.204h6.315V28.722a6.315 6.315 0 0 1 12.628 0v19.559h6.315V28.722c0-6.975-5.654-12.629-12.63-12.629M80.128 29.093c-1.473-7.327-7.943-12.845-15.702-12.845s-14.23 5.518-15.702 12.845a16.172 16.172 0 0 0 0 6.345c1.474 7.326 7.943 12.843 15.702 12.843 5.282 0 9.965-2.557 12.882-6.498l-5.073-3.748a9.692 9.692 0 0 1-7.809 3.938 9.712 9.712 0 0 1-9.179-6.535h24.881a16.167 16.167 0 0 0 0-6.345m-15.702-6.537a9.714 9.714 0 0 1 9.179 6.537H55.247a9.714 9.714 0 0 1 9.179-6.537M147.156 16.093c-8.89 0-16.094 7.206-16.094 16.094 0 8.889 7.205 16.094 16.094 16.094 8.889 0 16.094-7.205 16.094-16.094 0-8.888-7.205-16.094-16.094-16.094m0 25.88c-5.404 0-9.786-4.381-9.786-9.786 0-5.404 4.382-9.786 9.786-9.786 5.405 0 9.786 4.382 9.786 9.786a9.786 9.786 0 0 1-9.786 9.786M167.206 54.878h6.314V86.91h-6.314zM97.024 67.815c-1.464-7.29-7.903-12.783-15.625-12.783s-14.16 5.492-15.625 12.783a15.927 15.927 0 0 0-.313 3.156c0 1.082.107 2.138.313 3.157C67.24 81.42 73.677 86.91 81.4 86.91c5.256 0 9.917-2.544 12.82-6.467l-5.049-3.73a9.642 9.642 0 0 1-7.77 3.92 9.664 9.664 0 0 1-9.135-6.505h24.76c.205-1.019.312-2.075.312-3.157 0-1.08-.107-2.136-.313-3.156M81.4 61.31c4.23 0 7.827 2.72 9.134 6.506H72.265A9.666 9.666 0 0 1 81.4 61.31M114.12 54.722c-6.975 0-12.63 5.653-12.63 12.63V86.91h6.316V67.351a6.315 6.315 0 0 1 12.628 0v19.56h6.315V67.35c0-6.976-5.654-12.629-12.63-12.629M193.834 54.722c-8.888 0-16.094 7.206-16.094 16.094 0 8.89 7.206 16.094 16.094 16.094 8.889 0 16.094-7.205 16.094-16.094 0-8.888-7.205-16.094-16.094-16.094m0 25.88c-5.404 0-9.786-4.38-9.786-9.786 0-5.404 4.382-9.786 9.786-9.786 5.405 0 9.786 4.382 9.786 9.786a9.786 9.786 0 0 1-9.786 9.786M156.283 55.12l-9.125 22.925-9.127-22.925h-6.97l13.264 31.79h5.667l13.258-31.79z"/>
<path fill="currentColor" fill-rule="evenodd" clip-rule="evenodd" d="M180.089 16.093v6.314a6.315 6.315 0 0 0-6.313 6.315v19.559h-6.315V28.722c0-6.975 5.653-12.629 12.628-12.629"/>
<path fill-rule="evenodd" clip-rule="evenodd" d="M226.738 54.242l-.002-.03c-.144-1.858-.825-3.638-2.026-5.29l-.042-.056c-3.365-4.4-8.887-4.795-13.964-4.918 2.43-3.561 5.611-8.67 5.721-15.244.115-4.648-1.312-8.696-4.015-11.4a11.951 11.951 0 0 0-3.516-2.396 9.982 9.982 0 0 0-4.063-.884c-2.775-.124-5.548.993-7.624 3.069-2.141 2.14-2.807 4.673-3.395 6.908l-.021.086-.008.037a12.375 12.375 0 0 1-2.16 4.613l-1.487 1.98-.478.575-.093.118c-.1.134-.219.27-.354.43-.158.183-.333.388-.521.63-1.186 1.356-2.62 2.927-4.29 4.389l-.051.045a120.552 120.552 0 0 1-4.943 4.263V48.28s6.278-4.646 8.882-7.031c1.948-1.708 3.561-3.481 4.883-4.991l.138-.171c.101-.135.219-.272.355-.43.163-.191.347-.406.544-.664l.482-.58 2.027-2.747a15.666 15.666 0 0 0 2.511-5.156c.094-.342.183-.695.268-1.06.452-1.717.847-3.2 1.858-4.21.228-.228.544-.426.891-.595.681-.333 2.297-.714 3.683-.431 1.2.245 2.228 1.13 2.333 1.236 1.538 1.537 2.375 4.13 2.301 7.118l-.001.027c-.086 5.359-3.089 9.71-5.282 12.888l-.26.377c-.963 1.245-1.641 2.35-2.196 3.572l-1.734 3.815 4.178.322c.741.057 1.465.085 2.166.112.675.026 1.312.05 1.941.099l.164.008c4.592.095 8.559.178 10.449 2.612.544.757.839 1.492.899 2.247a8.505 8.505 0 0 1-.461 3.417c-.782 2.098-.975 4.464-.561 6.848.159 1.048.159 2.1.002 3.045l-.008.047c-.215 1.435-.879 2.902-1.973 4.36a9.591 9.591 0 0 0-1.218 2.145l-.06.162a9.494 9.494 0 0 0-.466 2.927c0 .934-.452 2.302-.856 3.34a10.925 10.925 0 0 1-1.552 2.74c-.532.687-1.199 1.47-1.733 1.852l-.128.096c-.537.43-1.26 1.09-1.824 1.904l-.107.107-.166.254c-2.12 3.247-3.424 5.244-5.401 6.884-1.64 1.36-3.585 2.3-5.654 2.813a18.72 18.72 0 0 1-1.841.373c-1.52.203-2.956.393-4.336.393a61.376 61.376 0 0 1-14.871-1.807l-.045-.011c-2.67-.623-6.216-1.385-9.964-1.748l-2.515-.014-99.218.005c-.608 0-.634.902-.027.938l101.333 4.923c3.346.334 6.579 1.03 9.036 1.603a67.288 67.288 0 0 0 16.271 1.977c1.773 0 3.477-.227 5.125-.447l.027-.004c.825-.118 2.332-.493 3.545-.814a16.01 16.01 0 0 0 4.148-1.747c4.351-2.613 6.289-5.504 9.131-9.854l.332-.456c.064-.105.283-.362.634-.65 1.736-1.257 3.152-2.88 4.214-4.827a14.276 14.276 0 0 0 2.308-7.823c0-.32.053-.698.139-.99.102-.23.26-.494.432-.724 1.679-2.238 2.714-4.588 3.078-6.987.26-1.575.26-3.224.001-4.905l-.01-.063c-.239-1.354-.139-2.714.279-3.831l.016-.043c.662-1.853.93-3.81.796-5.814"/>
</svg>
