<svg viewBox="0 0 24 24">
<path fill="currentColor" fill-rule="evenodd" clip-rule="evenodd" d="M12 21C5.777 21 .7 16.498.7 10.9S5.777.8 12 .8c6.223 0 11.3 4.502 11.3 10.1 0 2.08-.706 4.066-1.996 5.736.016 1.903.236 2.899 1.016 5.15l.458 1.32-1.331-.423c-2.746-.873-4.009-1.382-5.485-2.264-1.2.375-2.612.581-3.962.581zm7.903-4.607v-.249l.157-.193c1.192-1.465 1.84-3.215 1.84-5.051 0-4.785-4.415-8.7-9.9-8.7s-9.9 3.915-9.9 8.7c0 4.785 4.415 8.7 9.9 8.7 1.319 0 2.71-.22 3.818-.608l.315-.11.284.175c1.234.761 2.233 1.22 4.143 1.864-.506-1.643-.657-2.725-.657-4.528z"/>
</svg>
