<svg viewBox="0 0 392 501">
<path fill="currentColor" fill-rule="evenodd" clip-rule="evenodd" d="M25.37 416.653h340.982c-11.215-14.152-19.125-31.159-24.711-48.093h-30.346c-5.739 0-10.392-4.653-10.392-10.393 0-5.74 4.653-10.392 10.392-10.392h22.913c-5.618-27.44-5.948-57.145-5.967-59.267v-78.136c0-72.993-59.385-140.742-132.379-140.742-72.995 0-132.379 67.75-132.379 140.742v78.021c-.017 2.171-.348 31.916-5.969 59.382h212.851c5.739 0 10.392 4.652 10.392 10.392 0 5.74-4.653 10.393-10.392 10.393H50.079c-5.585 16.937-13.494 33.943-24.709 48.093zM195.862 481c21.523 0 40.301-15.517 46.329-36.149h-92.66c6.028 20.632 24.811 36.15 46.331 36.15zm0-460.804c-15.477 0-28.564 10.401-32.659 24.577a160.606 160.606 0 0132.659-3.342c11.188 0 22.111 1.154 32.659 3.342-4.094-14.177-17.181-24.577-32.659-24.577zm192.588 392.14c7.793 9.833.79 24.317-11.756 24.317H265.423l-4.034 13.807c-8.695 29.757-35.64 50.54-65.527 50.54-29.888 0-56.834-20.783-65.528-50.54l-4.034-13.807H15.028c-12.546 0-19.548-14.484-11.756-24.316l6.423-8.106c8.593-10.842 15.789-24.95 21.391-41.935l4.015-12.176 2.819-13.77c5.229-25.557 5.547-46.428 5.563-48.044v-77.934c0-63.41 38.94-126.266 94.158-149.183l6.347-21.968c3.185-11.02 9.978-20.944 19.128-27.94C172.6 4.028 183.924.195 195.862.195c11.939 0 23.262 3.833 32.746 11.084 9.152 6.997 15.945 16.92 19.128 27.943l6.345 21.966c55.226 22.913 94.16 85.767 94.16 149.183v78.035c.019 1.65.358 22.53 5.561 47.941l2.822 13.786 4.011 12.161c5.602 16.985 12.799 31.094 21.391 41.936l6.424 8.105zm-213.728-305.37c5.93-.721 11.142 3.967 11.142 9.94 0 5.022-3.718 9.307-8.702 9.913-32.544 3.96-58.42 29.836-62.38 62.377-.607 4.984-4.891 8.702-9.912 8.702-5.974 0-10.663-5.21-9.94-11.141 5.069-41.624 38.167-74.721 79.792-79.79z"/>
</svg>
