<svg viewBox="0 0 19 24">
<path fill="currentColor" fill-rule="evenodd" clip-rule="evenodd" d="M9.12 13.33c-.773 0-1.402.612-1.402 1.364 0 .38.157.733.44.994.26.238.409.57.409.912v2.404c0 .297.248.538.553.538a.547.547 0 00.553-.538V16.6c0-.342.149-.674.408-.912.284-.26.44-.614.44-.994 0-.752-.629-1.364-1.401-1.364zm0 7.176c-.851 0-1.543-.674-1.543-1.502V16.6a.294.294 0 00-.098-.21 2.279 2.279 0 01-.75-1.696c0-1.283 1.072-2.328 2.39-2.328 1.32 0 2.392 1.045 2.392 2.328 0 .648-.267 1.25-.751 1.695a.294.294 0 00-.097.211v2.404c0 .828-.692 1.502-1.543 1.502zm4.182-11.633V5.036c0-2.245-1.876-4.072-4.182-4.072-2.306 0-4.183 1.827-4.183 4.072v3.837h8.365zm4.475 11.819a.49.49 0 01-.528-.481V9.836H.99v13.2h16.26v-.893c0-.276.24-.499.528-.48.263.016.462.24.462.497v1.12a.73.73 0 01-.74.72H.74A.73.73 0 010 23.28V9.593a.73.73 0 01.74-.72h3.208V5.036C3.948 2.249 6.284-.016 9.15 0c2.854.016 5.142 2.312 5.142 5.091v3.782H17.5a.73.73 0 01.74.72v10.601c0 .257-.2.481-.463.498z"/>
</svg>
