<svg viewBox="0 0 24 18">
<path fill="currentColor" fill-rule="evenodd" clip-rule="evenodd" d="M14.707 8.498h3.415a.477.477 0 010 .955h-3.636c-.91 2.986-3.69 5.165-6.97 5.165a7.315 7.315 0 01-3.139-.711l-3.489.918a.71.71 0 01-.852-.908l1.052-3.156a7.288 7.288 0 01-.857-3.428C.23 3.316 3.499.048 7.516.048S14.8 3.316 14.8 7.333c0 .396-.032.786-.094 1.165zM7.516 1.003c-3.49 0-6.33 2.84-6.33 6.33 0 1.102.289 2.19.836 3.143l.106.185-1.042 3.124 3.397-.893.162.082c.884.45 1.877.689 2.87.689 3.491 0 6.33-2.84 6.33-6.33s-2.839-6.33-6.33-6.33zM18.122 11.84h-3.82a.477.477 0 110-.955h3.82a.477.477 0 010 .955zM7.408 9.41a.477.477 0 01-.477-.477v-.43c0-.573.49-.9.921-1.187.632-.42 1.046-.747 1.046-1.439 0-.754-.476-1.136-1.413-1.136-.543 0-1.176.16-1.337.863a.476.476 0 01-.464.369.478.478 0 01-.464-.59 1.97 1.97 0 01.572-1.011c.411-.383.996-.586 1.693-.586 1.46 0 2.367.801 2.367 2.091 0 1.255-.885 1.844-1.47 2.234-.057.037-.125.083-.192.13a.714.714 0 00-.304.586v.106a.477.477 0 01-.478.477zm.478.936a.477.477 0 11-.955 0 .477.477 0 01.955 0zm15.949 6.435a.708.708 0 01-.852.909l-3.49-.919a7.316 7.316 0 01-3.138.711 7.262 7.262 0 01-5.144-2.132.478.478 0 01.163-.783.487.487 0 01.518.115 6.31 6.31 0 004.463 1.845c.994 0 1.987-.238 2.871-.688l.162-.083 3.397.894-1.042-3.124.107-.186c.546-.953.835-2.04.835-3.143a6.337 6.337 0 00-7.298-6.256.478.478 0 01-.144-.944 7.29 7.29 0 011.112-.085c4.017 0 7.285 3.268 7.285 7.285a7.288 7.288 0 01-.857 3.429l1.052 3.155z"/>
</svg>
