<svg viewBox="0 0 24 24">
<path fill="currentColor" fill-rule="evenodd" clip-rule="evenodd" d="M.007 1.042C-.053.532.29.07.783.007A.9.9 0 011.784.81l.538 4.312C4.354 2 7.789.069 11.494.069c4.72 0 8.917 3.106 10.456 7.71a.934.934 0 01-.553 1.175.92.92 0 01-1.15-.572c-1.285-3.863-4.81-6.459-8.753-6.459-3.227 0-6.23 1.761-7.902 4.574l4.481-.526a.89.89 0 01.986.82c.045.51-.299.973-.792 1.02l-6.453.756H1.71a.887.887 0 01-.882-.803L.007 1.042zm22.191 12.962l-6.41.798c-.489.065-.845.537-.786 1.074.06.538.49.928.98.863l3.872-.472c-1.513 3.5-4.733 5.763-8.309 5.763-4.02 0-7.64-2.946-8.798-7.163-.148-.52-.638-.814-1.113-.651-.474.163-.741.7-.593 1.22.668 2.427 2.062 4.608 3.902 6.138C6.857 23.154 9.142 24 11.545 24c4.392 0 8.324-2.865 10.06-7.212l.623 5.421c.06.489.445.847.875.847h.119c.49-.065.83-.554.771-1.091l-.83-7.082c-.045-.553-.475-.928-.965-.879z"/>
</svg>
