<svg viewBox="0 0 24 24">
<path fill="currentColor" fill-rule="evenodd" clip-rule="evenodd" d="M18.743 3.207c-4.276-4.276-11.26-4.276-15.536 0s-4.276 11.26 0 15.536a10.889 10.889 0 007.768 3.217c2.55 0 4.943-.863 6.905-2.432L22.352 24 24 22.352l-4.472-4.472a10.975 10.975 0 002.432-6.905c0-2.903-1.138-5.689-3.217-7.768zM4.894 17.095a8.619 8.619 0 010-12.2c1.687-1.688 3.884-2.512 6.12-2.512 2.237 0 4.433.824 6.12 2.511 1.648 1.648 2.511 3.806 2.511 6.12 0 2.315-.902 4.473-2.51 6.12-1.609 1.648-3.806 2.511-6.12 2.511-2.315-.039-4.512-.902-6.12-2.55z"/>
</svg>
