<svg viewBox="0 0 24 24">
<path fill="currentColor" fill-rule="evenodd" clip-rule="evenodd" d="M13.047 0c.554 0 1.018.395 1.107.94l.332 1.978c.749.205 1.468.5 2.14.88l1.636-1.177.033-.023.035-.021a1.117 1.117 0 011.38.164l1.545 1.544c.374.375.436.951.15 1.401l-.014.022-.015.02-1.173 1.649c.37.652.661 1.352.866 2.086l1.992.337c.545.089.939.552.939 1.106v2.279c0 .511-.373.946-.878 1.024l-2.058.318a9.286 9.286 0 01-.866 2.086l1.174 1.654.003.005a1.12 1.12 0 01-.124 1.437l-1.546 1.546a1.117 1.117 0 01-1.45.117l-1.642-1.17a9.289 9.289 0 01-2.086.867l-.337 1.992a1.114 1.114 0 01-1.107.939h-2.182a1.114 1.114 0 01-1.107-.94l-.332-1.991a9.597 9.597 0 01-2.03-.833l-1.667 1.187-.031.022-.033.02a1.117 1.117 0 01-1.38-.164l-1.544-1.545a1.12 1.12 0 01-.15-1.401l.013-.022.016-.021 1.168-1.639a9.188 9.188 0 01-.877-2.084l-2.009-.342A1.114 1.114 0 010 13.14v-2.182c0-.554.395-1.018.94-1.107l1.978-.332c.201-.737.486-1.438.85-2.088L2.582 5.765l-.002-.003-.002-.003a1.121 1.121 0 01.126-1.438l1.545-1.544a1.117 1.117 0 011.45-.117l1.633 1.164a9.185 9.185 0 012.084-.877L9.758.938C9.848.394 10.311 0 10.865 0h2.182zm0 .985h-2.182a.134.134 0 00-.135.114l-.373 2.193a.71.71 0 01-.513.56 8.222 8.222 0 00-2.167.912.71.71 0 01-.767-.031L5.12 3.457a.128.128 0 00-.077-.025.132.132 0 00-.099.041L3.4 5.018a.141.141 0 00-.015.176l1.29 1.814c.161.223.177.519.037.757a8.287 8.287 0 00-.886 2.177.701.701 0 01-.566.519l-2.161.362a.134.134 0 00-.114.135v2.182c0 .068.047.125.114.135l2.193.373a.71.71 0 01.56.514c.196.762.507 1.492.912 2.166a.71.71 0 01-.031.767l-1.276 1.789a.14.14 0 00.016.176l1.545 1.545a.139.139 0 00.098.041c.026 0 .052-.01.078-.026l1.814-1.29a.683.683 0 01.405-.13c.119 0 .243.031.352.093a8.61 8.61 0 002.125.871.696.696 0 01.513.56l.363 2.177c.01.067.068.114.135.114h2.182a.134.134 0 00.135-.114l.368-2.177a.688.688 0 01.513-.56 8.299 8.299 0 002.172-.902.71.71 0 01.36-.098c.142 0 .283.043.402.13l1.799 1.28c.02.015.047.026.078.026a.131.131 0 00.098-.042l1.545-1.545a.141.141 0 00.016-.176l-1.28-1.804a.701.701 0 01-.032-.762c.404-.679.705-1.41.902-2.172a.696.696 0 01.56-.513l2.177-.363a.134.134 0 00.114-.134h.005v-2.183a.134.134 0 00-.114-.134l-2.177-.369a.688.688 0 01-.56-.513 8.298 8.298 0 00-.902-2.172.7.7 0 01.031-.762l1.28-1.798a.14.14 0 00-.015-.177l-1.545-1.544a.14.14 0 00-.098-.042.154.154 0 00-.078.026L17.05 4.707a.701.701 0 01-.762.03 8.413 8.413 0 00-2.224-.911.7.7 0 01-.518-.566L13.182 1.1a.134.134 0 00-.135-.114zm3.462 11.98a.494.494 0 01.956.242 5.6 5.6 0 01-1.647 2.784 5.62 5.62 0 01-3.627 1.49 5.594 5.594 0 01-4.17-1.644 5.59 5.59 0 01-1.648-3.979A5.59 5.59 0 018.021 7.88a5.594 5.594 0 014.17-1.645 5.62 5.62 0 013.628 1.49 5.6 5.6 0 011.645 2.784.494.494 0 01-.956.24 4.644 4.644 0 00-9.15 1.175c.036 2.543 2.144 4.6 4.687 4.576a4.644 4.644 0 004.464-3.534z"/>
</svg>
