<svg viewBox="0 0 24 24">
<path fill="currentColor" fill-rule="evenodd" clip-rule="evenodd" d="M13.692 16.208c0 1.122-.758 2.031-1.692 2.031-.934 0-1.692-.91-1.692-2.031 0-1.123.758-2.032 1.692-2.032.934 0 1.692.91 1.692 2.032zm4.686 4.95c.473 0 .663.614.27.876a11.957 11.957 0 01-6.652 2.013 11.962 11.962 0 01-8.48-3.514A11.952 11.952 0 010 12.047c0-3.312 1.338-6.31 3.515-8.486a11.964 11.964 0 018.48-3.514 12 12 0 019.378 19.49.479.479 0 11-.754-.594 11.036 11.036 0 001.552-2.602c.577-1.361.869-2.806.869-4.294 0-1.489-.292-2.933-.869-4.295a11.083 11.083 0 00-2.365-3.513 11.085 11.085 0 00-3.514-2.365 10.965 10.965 0 00-4.296-.868A11.018 11.018 0 004.195 4.24 10.966 10.966 0 00.96 12.047c0 2.95 1.149 5.722 3.235 7.807a11.013 11.013 0 007.8 3.233c1.49 0 2.935-.292 4.296-.868a11.06 11.06 0 001.82-.98.483.483 0 01.267-.081zM16.518 9.28l.839.837a.48.48 0 11-.679.679l-.838-.838-.838.838a.479.479 0 01-.679 0 .48.48 0 010-.679l.838-.837-.838-.838a.48.48 0 11.679-.679l.838.838.838-.838a.48.48 0 01.679.679l-.838.838zm-7.68 0l.839.837a.48.48 0 11-.679.679l-.838-.838-.838.838a.479.479 0 01-.679 0 .48.48 0 010-.679l.838-.837-.838-.838a.48.48 0 11.679-.679l.838.838.838-.838a.48.48 0 01.679.679l-.838.838z"/>
</svg>
