<svg viewBox="0 0 32 30">
<path fill="currentColor" fill-rule="evenodd" clip-rule="evenodd" d="M15.924 28.699a.85.85 0 000-1.7.85.85 0 000 1.7zm-10.806-8.49h1.355V12.52H5.118a3.849 3.849 0 00-3.844 3.845 3.849 3.849 0 003.844 3.844zm11.005 5.526a2.13 2.13 0 011.919 1.959 2.126 2.126 0 01-2.118 2.279 2.127 2.127 0 01-2.073-1.664c-3.97-.683-7.289-3.294-8.955-6.831a5.118 5.118 0 01-.345-10.2C4.602 5.042 9.674 0 15.924 0c4.834 0 8.963 3.017 10.61 7.27a.634.634 0 01-1.187.456 10.07 10.07 0 00-2.282-3.494 10.034 10.034 0 00-7.134-2.958A10.117 10.117 0 008.81 4.205a10.032 10.032 0 00-2.984 7.042H7.11c.352 0 .637.285.637.637v8.962a.637.637 0 01-.637.637h-.785a10.943 10.943 0 007.638 5.552 2.126 2.126 0 012.16-1.3zm10.606-5.526a3.849 3.849 0 003.844-3.844 3.849 3.849 0 00-3.844-3.845h-1.355v7.69h1.355zm.567-8.93a5.118 5.118 0 014.551 5.066c.01 2.826-2.355 5.138-5.181 5.138h-.352.415-1.992a.637.637 0 01-.637-.637v-8.962c0-.352.285-.637.637-.637h1.285a10.19 10.19 0 00-.075-1.12.635.635 0 01.63-.714h.002c.32 0 .592.237.63.555.054.43.084.867.087 1.31zm-18.47-1.63a.627.627 0 01-.578-.873 8.536 8.536 0 017.147-5.127.638.638 0 01.107 1.27 7.202 7.202 0 00-4.549 2.102A7.245 7.245 0 009.42 9.272a.627.627 0 01-.578.377h-.015z"/>
</svg>
