<svg viewBox="0 0 500 471">
<path fill="currentColor" fill-rule="evenodd" clip-rule="evenodd" d="M410.726 313.286h-10.353c-5.522 0-10-4.477-10-10V202.572c0-5.523 4.478-10 10-10h11.27c33.594 0 60.864 27.586 60.35 61.295-.505 33.118-28.144 59.419-61.267 59.419zM73.647 192.57H84c5.522 0 10 4.477 10 10v100.714c0 5.523-4.478 10-10 10H72.73c-33.594 0-60.864-27.586-60.35-61.295.505-33.118 28.145-59.419 61.267-59.419zm162.036 243.067c0-6.917 5.607-12.524 12.524-12.524 6.916 0 12.524 5.607 12.524 12.524 0 6.917-5.608 12.523-12.524 12.523-6.917 0-12.524-5.606-12.524-12.523z" opacity=".3"/>
<path fill="currentColor" fill-rule="evenodd" clip-rule="evenodd" d="M138.58 151.485c-7.057 0-11.877-7.221-9.082-13.7 19.18-44.455 61.745-76.454 112.198-80.49 5.828-.466 10.825 4.126 10.825 9.973 0 5.191-3.97 9.547-9.146 9.955-26.984 2.13-52.066 13.662-71.413 33.01-10.338 10.337-18.439 22.313-24.069 35.34-1.555 3.595-5.103 5.912-9.074 5.912h-.239zM250 450.569c7.355 0 13.339-5.983 13.339-13.338 0-7.355-5.984-13.339-13.339-13.339s-13.339 5.984-13.339 13.339 5.984 13.338 13.339 13.338zM80.357 317.286h21.27V196.571h-21.27C47.076 196.571 20 223.648 20 256.928c0 33.282 27.076 60.358 60.357 60.358zm172.771 86.75c16.104 1.476 28.971 14.627 30.124 30.758 1.392 19.479-14.064 35.775-33.252 35.775-15.901 0-29.23-11.194-32.541-26.114-62.331-10.728-114.429-51.726-140.599-107.258C34.104 335.364 0 300.135 0 256.928c0-41.367 31.263-75.419 71.447-79.854C72.253 79.143 151.878 0 250 0c75.905 0 140.733 47.364 166.575 114.147 2.515 6.501-2.37 13.49-9.34 13.49-4.103 0-7.803-2.508-9.283-6.336-7.858-20.331-19.949-38.981-35.825-54.857C332.205 36.522 292.431 20.031 250.119 20c-41.807-.031-82.149 16.568-111.82 46.02-29.745 29.527-46.332 68.744-46.846 110.551h20.174c5.522 0 10 4.477 10 10v140.715c0 5.523-4.478 10-10 10h-12.32c24.319 44.865 68.077 77.713 119.907 87.16 5.4-12.954 18.743-21.801 33.914-20.41zm166.515-86.75c33.28 0 60.357-27.076 60.357-60.357s-27.076-60.357-60.357-60.357h-21.27v120.714h21.27zm8.91-140.211c40.083 4.423 71.289 38.314 71.446 79.54.17 44.37-36.977 80.67-81.347 80.67h-5.528 6.519-31.27c-5.522 0-10-4.476-10-10V186.573c0-5.523 4.478-10 10-10h20.174a159.978 159.978 0 00-1.184-17.588c-.732-5.952 3.896-11.201 9.893-11.201h.038c5.02 0 9.285 3.726 9.902 8.708a179.17 179.17 0 011.357 20.584z"/>
</svg>
