<svg viewBox="0 0 24 24">
<path fill="currentColor" fill-rule="evenodd" clip-rule="evenodd" d="M22.545 21.15a.468.468 0 000-.935H8.687a3.236 3.236 0 010 .935h13.858zM5.452 22.984a2.298 2.298 0 002.253-1.834 2.285 2.285 0 000-.935 2.297 2.297 0 00-.819-1.331 2.285 2.285 0 00-1.901-.455 2.297 2.297 0 00-1.835 2.254 2.304 2.304 0 002.302 2.3zM4.5 1.907c.267 0 .484.217.484.484v15.055a3.23 3.23 0 01.934 0V.973H1.435a.467.467 0 00-.466.498.478.478 0 00.482.436H4.5zm4.22.968v4.42h7.735v-4.42h-1.954v1.727c0 .4-.325.726-.726.726H11.4a.726.726 0 01-.726-.726V2.875H8.721zm2.921 1.485h1.893V2.875h-1.893V4.36zm1.204 7.395h2.735V8.272h-2.735v3.483zm0 7.492h2.735V17.66h-2.735v1.588zm6.86 0V8.263h-3.158v3.734c0 .4-.325.725-.726.725h-3.218a.726.726 0 01-.726-.725V8.263H8.72v10.984h3.157v-1.83c0-.4.325-.725.726-.725h3.218c.401 0 .726.325.726.726v1.83h3.157zm2.84 0a1.436 1.436 0 010 2.87H8.39a3.27 3.27 0 11-4.373-4.373V2.874H1.435A1.437 1.437 0 01.001 1.398C.024.617.685.005 1.465.005h4.696c.4 0 .725.325.725.726v17.013c.323.158.615.367.867.617V8.02c0-.085.015-.166.042-.242a.722.722 0 01-.042-.242V2.633c0-.401.325-.726.726-.726h8.267c.374 0 .678.303.678.677v4.711h2.523c.401 0 .726.325.726.726v11.226h1.872zM5.438 21.295a.49.49 0 100-.978.49.49 0 000 .978zm0-1.957c.81 0 1.467.659 1.467 1.468a1.47 1.47 0 01-1.467 1.467 1.47 1.47 0 01-1.468-1.467c0-.81.659-1.468 1.468-1.468z"/>
</svg>
