<svg viewBox="0 0 18 24">
<path fill="currentColor" fill-rule="evenodd" clip-rule="evenodd" d="M.932 6.398h15.781c-.128-.478-.44-1.015-.877-1.488-.58-.63-1.268-1.02-1.794-1.02H3.603c-.526 0-1.214.39-1.794 1.02-.436.473-.749 1.01-.877 1.488zm5.122-3.442v.03h5.388v-.03c0-.936-.467-2.052-2.694-2.052-2.226 0-2.694 1.116-2.694 2.052zm7.988.03c1.616 0 3.603 2.13 3.603 3.864 0 .25-.194.452-.433.452h-.27v12.623c0 .25-.193.452-.433.452a.443.443 0 01-.433-.452V7.302H1.558v15.794h14.518v-.912c0-.25.194-.452.433-.452.24 0 .434.202.434.452v1.364c0 .25-.194.452-.434.452H1.124a.443.443 0 01-.433-.452V7.302H.433A.443.443 0 010 6.85c0-1.733 1.987-3.864 3.603-3.864h1.585v-.03c0-.996.382-1.793 1.106-2.304C6.905.219 7.73 0 8.748 0c1.017 0 1.843.22 2.455.652.724.511 1.106 1.308 1.106 2.304v.03h1.733zm-9.503 7.462c0-.25.194-.452.433-.452.24 0 .434.203.434.452v9.477c0 .25-.195.452-.434.452a.443.443 0 01-.433-.452v-9.477zm3.847 0c0-.25.194-.452.434-.452s.433.203.433.452v9.477c0 .25-.194.452-.433.452a.443.443 0 01-.434-.452v-9.477zm3.848 9.477v-9.477c0-.25.194-.452.434-.452.239 0 .433.203.433.452v9.477c0 .25-.194.452-.433.452a.443.443 0 01-.434-.452z"/>
</svg>

