<svg viewBox="0 0 24 19">
<path fill="currentColor" fill-rule="evenodd" clip-rule="evenodd" d="M13.21 13.472c.243 0 .439.199.439.443a.441.441 0 01-.438.443h-1.783a.441.441 0 01-.438-.443c0-.244.197-.443.438-.443h1.783zm.163-11.522c.25 0 .453.199.453.443a.449.449 0 01-.453.443H2.934a.449.449 0 01-.452-.443c0-.244.203-.443.452-.443h10.44zm5.062 13.117a.71.71 0 110 1.418.71.71 0 010-1.418zm-13.117 0a.71.71 0 110 1.418.71.71 0 010-1.418zm17.473-4.512h-.91v.505c0 .21.17.382.381.382h.53v-.887zm-1.53 4.737h1.538v-2.896h-.918a.954.954 0 01-.954-.954v-1.125c0-.396.32-.716.715-.716h1.154a.715.715 0 00-.713-.665h-5.971v.954a.477.477 0 11-.954 0V7.981h-.015V.956H.953v14.336h1.539a2.852 2.852 0 012.8-2.365c1.342 0 2.512.954 2.783 2.269l.017.096h7.051l.015.015v-3.11a.477.477 0 11.954 0v1.977a2.851 2.851 0 012.349-1.247c1.342 0 2.512.954 2.783 2.269l.017.096zm-.952.858a1.907 1.907 0 000-.762 1.894 1.894 0 00-1.848-1.507 1.894 1.894 0 00-1.848 2.27c.179.873.956 1.507 1.848 1.507.891 0 1.669-.634 1.848-1.508zm-13.169 0a1.91 1.91 0 000-.762 1.894 1.894 0 00-1.848-1.507 1.894 1.894 0 00-1.848 2.27c.18.873.956 1.507 1.848 1.507.891 0 1.669-.634 1.848-1.508zM20.166 5.715h-4.069v2.266h4.635l-.566-2.266zm-4.009-2.462V4.76h4.25v-.79a.716.716 0 00-.716-.717h-3.534zm6.165 4.728c.79 0 1.43.641 1.43 1.432v6.118c0 .395-.32.716-.715.716h-1.776c-.006.031-.01.063-.017.095a2.852 2.852 0 01-2.783 2.27 2.852 2.852 0 01-2.783-2.27l-.017-.095H8.09c-.004.031-.01.063-.016.095a2.852 2.852 0 01-2.783 2.27 2.852 2.852 0 01-2.783-2.27l-.017-.095H.715A.716.716 0 010 15.53V.718C0 .322.32.002.715.002h14.667c.395 0 .715.32.715.716v1.58h3.832c.79 0 1.431.642 1.431 1.433v1.268a.714.714 0 01-.253.546l.609 2.436h.606z"/>
</svg>
