<svg viewBox="0 0 22 24">
<path fill="currentColor" fill-rule="evenodd" clip-rule="evenodd" d="M20.189 18.725v-4.492H14.68a2.248 2.248 0 0 0-2.246 2.246 2.248 2.248 0 0 0 2.246 2.246h5.508zm.945-5.437v6.383h-1.229v3.31a.946.946 0 0 1-.946.945H.946A.946.946 0 0 1 0 22.98v-.945a.473.473 0 0 1 .946 0v.945h18.013v-3.31h-4.278a3.195 3.195 0 0 1-3.192-3.19 3.195 3.195 0 0 1 3.192-3.192h4.278v-3.31H.946v9.693a.473.473 0 1 1-.946 0V9.978c0-.522.423-.945.946-.945h18.013c.523 0 .946.423.946.945v3.31h1.23zm-8.084 9.391h-.009a.52.52 0 0 1-.517-.521.52.52 0 0 1 .517-.522h.009a.52.52 0 0 1 .517.522.52.52 0 0 1-.517.521zm-2.04 0a.52.52 0 0 1-.518-.521.52.52 0 0 1 .517-.522h.009a.52.52 0 0 1 .517.522.52.52 0 0 1-.517.521h-.009zm-2.033 0a.52.52 0 0 1-.517-.521.52.52 0 0 1 .517-.522h.009a.52.52 0 0 1 .517.522.52.52 0 0 1-.517.521h-.009zm-2.032 0a.52.52 0 0 1-.517-.521.52.52 0 0 1 .517-.522h.008a.52.52 0 0 1 .518.522.52.52 0 0 1-.518.521h-.008zm-2.032 0a.52.52 0 0 1-.517-.521.52.52 0 0 1 .517-.522h.008a.52.52 0 0 1 .518.522.52.52 0 0 1-.518.521h-.008zm-2.032 0a.52.52 0 0 1-.517-.521.52.52 0 0 1 .517-.522h.008a.52.52 0 0 1 .518.522.52.52 0 0 1-.518.521h-.008zM13.05 11.57h-.009a.52.52 0 0 1-.517-.522.52.52 0 0 1 .517-.522h.009a.52.52 0 0 1 .517.522.52.52 0 0 1-.517.522zm-2.04 0a.52.52 0 0 1-.518-.522.52.52 0 0 1 .517-.522h.009a.52.52 0 0 1 .517.522.52.52 0 0 1-.517.522h-.009zm-2.033 0a.52.52 0 0 1-.517-.522.52.52 0 0 1 .517-.522h.009a.52.52 0 0 1 .517.522.52.52 0 0 1-.517.522h-.009zm-2.032 0a.52.52 0 0 1-.517-.522.52.52 0 0 1 .517-.522h.008a.52.52 0 0 1 .518.522.52.52 0 0 1-.518.522h-.008zm-2.032 0a.52.52 0 0 1-.517-.522.52.52 0 0 1 .517-.522h.008a.52.52 0 0 1 .518.522.52.52 0 0 1-.518.522h-.008zm-2.032 0a.52.52 0 0 1-.517-.522.52.52 0 0 1 .517-.522h.008a.52.52 0 0 1 .518.522.52.52 0 0 1-.518.522h-.008zM14.5 15.74a.76.76 0 1 0 .002 1.52.76.76 0 0 0-.002-1.52zm-1.5.76c0-.828.673-1.501 1.5-1.501s1.5.673 1.5 1.5-.673 1.5-1.5 1.5-1.5-.673-1.5-1.5zm2.082 6.178h-.008a.52.52 0 0 1-.518-.521.52.52 0 0 1 .518-.522h.008a.52.52 0 0 1 .517.522.52.52 0 0 1-.517.521zm-.009-11.11a.52.52 0 0 1-.517-.522.52.52 0 0 1 .517-.522h.009a.52.52 0 0 1 .517.522.52.52 0 0 1-.517.522h-.009zm2.04 11.11h-.007a.52.52 0 0 1-.518-.521.52.52 0 0 1 .518-.522h.008a.52.52 0 0 1 .517.522.52.52 0 0 1-.517.521zm0-11.11h-.007a.52.52 0 0 1-.518-.522.52.52 0 0 1 .518-.522h.008a.52.52 0 0 1 .517.522.52.52 0 0 1-.517.522zM3.529 3.53a2.92 2.92 0 0 0-.04-.479L1.2 3.827l.775 2.287A2.93 2.93 0 0 0 3.528 3.53zM1.754 8.41L.16 3.71a.501.501 0 0 1 .313-.635L6.866.908V.473c0-.261.212-.473.473-.473h8.973c.26 0 .472.212.472.473v7.78a.473.473 0 1 1-.945 0V.945H7.812v7.306a.473.473 0 1 1-.946 0v-.737a2.931 2.931 0 0 0-1.749 1.078.356.356 0 0 1-.32.137c-.275-.03-.403-.364-.231-.582a3.638 3.638 0 0 1 2.3-1.353v-3.89a3.65 3.65 0 0 1-.549-.813l-2.15.729a3.632 3.632 0 0 1-1.963 3.972l.44 1.3a.473.473 0 0 1-.891.317zM13.51 5.47a1.076 1.076 0 0 0 1.043-1.334 1.542 1.542 0 0 1-2.086 0 1.072 1.072 0 0 0 1.043 1.334zm0-3.553a1.076 1.076 0 1 0 0 2.151 1.076 1.076 0 0 0 0-2.151zm1.549 2.477a1.55 1.55 0 0 1-1.549 1.549 1.55 1.55 0 0 1-1.38-2.249 1.55 1.55 0 0 1 1.38-2.25 1.55 1.55 0 0 1 1.38 2.25c.107.21.169.448.169.7zm-3.471 3.454c0-.13.233-.236.522-.236.288 0 .521.105.521.236v.647c0 .131-.233.237-.521.237-.289 0-.522-.106-.522-.237v-.647zM9 2.225C9 2.101 9.224 2 9.5 2s.5.1.5.225v3.55c0 .124-.224.225-.5.225S9 5.9 9 5.775v-3.55zm4.555 4.645c0-.137.26-.247.568-.235.274.01.475.123.475.247V8.49c0 .13-.233.236-.521.236-.289 0-.522-.106-.522-.236V6.87z"/>
</svg>
