<svg viewBox="0 0 16 16">
<path fill="currentColor" fill-rule="evenodd" clip-rule="evenodd" d="M12.329 2.11c-2.813-2.813-7.406-2.813-10.22 0-2.812 2.813-2.812 7.406 0 10.219a7.162 7.162 0 0 0 5.11 2.116 7.22 7.22 0 0 0 4.542-1.6l2.942 2.942 1.084-1.084-2.942-2.942a7.22 7.22 0 0 0 1.6-4.542c0-1.91-.748-3.742-2.116-5.11zm-9.11 9.135a5.67 5.67 0 0 1 0-8.026 5.64 5.64 0 0 1 4.026-1.651 5.64 5.64 0 0 1 5.678 5.677 5.725 5.725 0 0 1-1.652 4.026c-1.058 1.084-2.503 1.652-4.026 1.652-1.522-.026-2.968-.594-4.026-1.678z"/>
</svg>
