<?xml version="1.0" standalone="no"?>
<!DOCTYPE svg PUBLIC "-//W3C//DTD SVG 20010904//EN"
 "http://www.w3.org/TR/2001/REC-SVG-20010904/DTD/svg10.dtd">
<svg version="1.0" xmlns="http://www.w3.org/2000/svg"
 width="700.000000pt" height="700.000000pt" viewBox="0 0 700.000000 700.000000"
 preserveAspectRatio="xMidYMid meet">
<metadata>
Created by potrace 1.11, written by Peter Selinger 2001-2013
</metadata>
<g transform="translate(0.000000,700.000000) scale(0.100000,-0.100000)"
fill="#000000" stroke="none">
<path d="M5145 6994 c-226 -35 -476 -221 -574 -426 -16 -35 -64 -164 -106
-288 -87 -255 -125 -334 -235 -481 -176 -236 -488 -560 -737 -767 l-153 -127
0 -284 c0 -225 3 -282 13 -274 636 480 922 747 1207 1128 205 273 251 364 360
712 79 252 169 333 370 333 221 -1 367 -134 432 -396 28 -116 30 -319 4 -442
-50 -237 -143 -433 -366 -777 -177 -272 -304 -508 -317 -589 -5 -31 -3 -34 28
-45 35 -12 192 -24 529 -41 309 -16 557 -38 619 -56 134 -38 236 -117 286
-218 50 -102 49 -223 -1 -379 -25 -79 -27 -93 -35 -418 -10 -436 -12 -446
-149 -684 -86 -149 -102 -193 -135 -376 -53 -290 -117 -421 -303 -621 -63 -68
-161 -186 -218 -263 -181 -243 -246 -323 -344 -420 -149 -148 -218 -191 -411
-255 -179 -60 -193 -62 -509 -67 -569 -10 -741 12 -1555 200 l-150 35 -1348 7
-1348 7 3 -163 3 -164 175 -12 c96 -6 425 -23 730 -37 1560 -74 1602 -77 2164
-196 563 -118 767 -143 1201 -144 317 -1 445 10 635 55 215 50 407 134 549
240 154 115 335 308 481 514 80 112 214 277 270 330 116 111 247 294 321 449
54 114 71 178 94 357 23 176 31 201 98 302 165 248 215 456 203 832 -7 212 -5
234 45 460 32 141 32 365 0 480 -109 403 -457 620 -1029 642 -84 3 -155 10
-158 15 -3 5 30 68 74 141 218 361 308 617 331 952 24 325 -42 621 -183 833
-112 168 -314 317 -498 368 -53 15 -304 27 -363 18z"/>
</g>
</svg>
